<?xml version="1.0" encoding="UTF-8" standalone="no"?>
<!DOCTYPE svg PUBLIC "-//W3C//DTD SVG 1.1//EN"
 "http://www.w3.org/Graphics/SVG/1.1/DTD/svg11.dtd">
<!-- Generated by graphviz version 2.40.1 (20161225.0304)
 -->
<!-- Title: dependencies Pages: 1 -->
<svg width="1785pt" height="284pt"
 viewBox="0.00 0.00 1785.00 284.00" xmlns="http://www.w3.org/2000/svg" xmlns:xlink="http://www.w3.org/1999/xlink">
<g id="graph0" class="graph" transform="scale(1 1) rotate(0) translate(4 280)">
<title>dependencies</title>
<polygon fill="#ffffff" stroke="transparent" points="-4,4 -4,-280 1781,-280 1781,4 -4,4"/>
<text text-anchor="start" x="867.5091" y="-42.4" font-family="sans-serif" font-weight="bold" font-size="14.00" fill="#000000">Legend</text>
<polygon fill="#ffffb3" stroke="transparent" points="654.5,-10 654.5,-30 674.5,-30 674.5,-10 654.5,-10"/>
<text text-anchor="start" x="678.129" y="-15.4" font-family="sans-serif" font-size="14.00" fill="#000000"> &#160;Declarations</text>
<polygon fill="#8dd3c7" stroke="transparent" points="767.5,-10 767.5,-30 787.5,-30 787.5,-10 767.5,-10"/>
<text text-anchor="start" x="791.2251" y="-15.4" font-family="sans-serif" font-size="14.00" fill="#000000"> &#160;Module</text>
<polygon fill="#80b1d3" stroke="transparent" points="853.5,-10 853.5,-30 873.5,-30 873.5,-10 853.5,-10"/>
<text text-anchor="start" x="877.2812" y="-15.4" font-family="sans-serif" font-size="14.00" fill="#000000"> &#160;Bootstrap</text>
<polygon fill="#fdb462" stroke="transparent" points="950.5,-10 950.5,-30 970.5,-30 970.5,-10 950.5,-10"/>
<text text-anchor="start" x="974.1732" y="-15.4" font-family="sans-serif" font-size="14.00" fill="#000000"> &#160;Providers</text>
<polygon fill="#fb8072" stroke="transparent" points="1046.5,-10 1046.5,-30 1066.5,-30 1066.5,-10 1046.5,-10"/>
<text text-anchor="start" x="1070.2258" y="-15.4" font-family="sans-serif" font-size="14.00" fill="#000000"> &#160;Exports</text>
<g id="clust1" class="cluster">
<title>cluster_MaterialDesignModule</title>
<polygon fill="none" stroke="#000000" stroke-dasharray="1,5" points="8,-70 8,-268 1769,-268 1769,-70 8,-70"/>
</g>
<g id="clust3" class="cluster">
<title>cluster_MaterialDesignModule_imports</title>
<polygon fill="none" stroke="#000000" points="16,-78 16,-130 1761,-130 1761,-78 16,-78"/>
</g>
<g id="clust4" class="cluster">
<title>cluster_MaterialDesignModule_exports</title>
<polygon fill="none" stroke="#000000" points="73,-208 73,-260 1703,-260 1703,-208 73,-208"/>
</g>
<!-- MatButtonModule -->
<g id="node1" class="node">
<title>MatButtonModule</title>
<polygon fill="#8dd3c7" stroke="#000000" points="1753.2176,-122 1750.2176,-126 1729.2176,-126 1726.2176,-122 1632.7824,-122 1632.7824,-86 1753.2176,-86 1753.2176,-122"/>
<text text-anchor="middle" x="1693" y="-99.8" font-family="Times,serif" font-size="14.00" fill="#000000">MatButtonModule</text>
</g>
<!-- MaterialDesignModule -->
<g id="node13" class="node">
<title>MaterialDesignModule</title>
<polygon fill="#8dd3c7" stroke="#000000" points="979.1275,-187 976.1275,-191 955.1275,-191 952.1275,-187 832.8725,-187 832.8725,-151 979.1275,-151 979.1275,-187"/>
<text text-anchor="middle" x="906" y="-164.8" font-family="Times,serif" font-size="14.00" fill="#000000">MaterialDesignModule</text>
</g>
<!-- MatButtonModule&#45;&gt;MaterialDesignModule -->
<g id="edge1" class="edge">
<title>MatButtonModule&#45;&gt;MaterialDesignModule</title>
<path fill="none" stroke="#000000" d="M1663.875,-122.1061C1663.875,-141.3391 1663.875,-169 1663.875,-169 1663.875,-169 989.3569,-169 989.3569,-169"/>
<polygon fill="#000000" stroke="#000000" points="989.3569,-165.5001 979.3569,-169 989.3568,-172.5001 989.3569,-165.5001"/>
</g>
<!-- MatCheckboxModule -->
<g id="node2" class="node">
<title>MatCheckboxModule</title>
<polygon fill="#8dd3c7" stroke="#000000" points="1614.3655,-122 1611.3655,-126 1590.3655,-126 1587.3655,-122 1475.6345,-122 1475.6345,-86 1614.3655,-86 1614.3655,-122"/>
<text text-anchor="middle" x="1545" y="-99.8" font-family="Times,serif" font-size="14.00" fill="#000000">MatCheckboxModule</text>
</g>
<!-- MatCheckboxModule&#45;&gt;MaterialDesignModule -->
<g id="edge2" class="edge">
<title>MatCheckboxModule&#45;&gt;MaterialDesignModule</title>
<path fill="none" stroke="#000000" d="M1514.375,-122.2667C1514.375,-140.5552 1514.375,-166 1514.375,-166 1514.375,-166 989.3842,-166 989.3842,-166"/>
<polygon fill="#000000" stroke="#000000" points="989.3843,-162.5001 979.3842,-166 989.3842,-169.5001 989.3843,-162.5001"/>
</g>
<!-- MatCardModule -->
<g id="node3" class="node">
<title>MatCardModule</title>
<polygon fill="#8dd3c7" stroke="#000000" points="1457.8118,-122 1454.8118,-126 1433.8118,-126 1430.8118,-122 1348.1882,-122 1348.1882,-86 1457.8118,-86 1457.8118,-122"/>
<text text-anchor="middle" x="1403" y="-99.8" font-family="Times,serif" font-size="14.00" fill="#000000">MatCardModule</text>
</g>
<!-- MatCardModule&#45;&gt;MaterialDesignModule -->
<g id="edge3" class="edge">
<title>MatCardModule&#45;&gt;MaterialDesignModule</title>
<path fill="none" stroke="#000000" d="M1370.375,-122.0336C1370.375,-139.0597 1370.375,-162 1370.375,-162 1370.375,-162 989.3254,-162 989.3254,-162"/>
<polygon fill="#000000" stroke="#000000" points="989.3254,-158.5001 979.3254,-162 989.3253,-165.5001 989.3254,-158.5001"/>
</g>
<!-- MatInputModule -->
<g id="node4" class="node">
<title>MatInputModule</title>
<polygon fill="#8dd3c7" stroke="#000000" points="1330.6513,-122 1327.6513,-126 1306.6513,-126 1303.6513,-122 1219.3487,-122 1219.3487,-86 1330.6513,-86 1330.6513,-122"/>
<text text-anchor="middle" x="1275" y="-99.8" font-family="Times,serif" font-size="14.00" fill="#000000">MatInputModule</text>
</g>
<!-- MatInputModule&#45;&gt;MaterialDesignModule -->
<g id="edge4" class="edge">
<title>MatInputModule&#45;&gt;MaterialDesignModule</title>
<path fill="none" stroke="#000000" d="M1240.375,-122.0091C1240.375,-138.0494 1240.375,-159 1240.375,-159 1240.375,-159 989.38,-159 989.38,-159"/>
<polygon fill="#000000" stroke="#000000" points="989.38,-155.5001 979.38,-159 989.38,-162.5001 989.38,-155.5001"/>
</g>
<!-- MatFormFieldModule -->
<g id="node5" class="node">
<title>MatFormFieldModule</title>
<polygon fill="#8dd3c7" stroke="#000000" points="1201.712,-122 1198.712,-126 1177.712,-126 1174.712,-122 1060.288,-122 1060.288,-86 1201.712,-86 1201.712,-122"/>
<text text-anchor="middle" x="1131" y="-99.8" font-family="Times,serif" font-size="14.00" fill="#000000">MatFormFieldModule</text>
</g>
<!-- MatFormFieldModule&#45;&gt;MaterialDesignModule -->
<g id="edge5" class="edge">
<title>MatFormFieldModule&#45;&gt;MaterialDesignModule</title>
<path fill="none" stroke="#000000" d="M1094.375,-122.1243C1094.375,-136.7832 1094.375,-155 1094.375,-155 1094.375,-155 989.3701,-155 989.3701,-155"/>
<polygon fill="#000000" stroke="#000000" points="989.3701,-151.5001 979.3701,-155 989.3701,-158.5001 989.3701,-151.5001"/>
</g>
<!-- MatSelectModule -->
<g id="node6" class="node">
<title>MatSelectModule</title>
<polygon fill="#8dd3c7" stroke="#000000" points="1042.3076,-122 1039.3076,-126 1018.3076,-126 1015.3076,-122 925.6924,-122 925.6924,-86 1042.3076,-86 1042.3076,-122"/>
<text text-anchor="middle" x="984" y="-99.8" font-family="Times,serif" font-size="14.00" fill="#000000">MatSelectModule</text>
</g>
<!-- MatSelectModule&#45;&gt;MaterialDesignModule -->
<g id="edge6" class="edge">
<title>MatSelectModule&#45;&gt;MaterialDesignModule</title>
<path fill="none" stroke="#000000" d="M952.58,-122.1061C952.58,-122.1061 952.58,-140.991 952.58,-140.991"/>
<polygon fill="#000000" stroke="#000000" points="949.08,-140.9909 952.58,-150.991 956.08,-140.991 949.08,-140.9909"/>
</g>
<!-- MatToolbarModule -->
<g id="node7" class="node">
<title>MatToolbarModule</title>
<polygon fill="#8dd3c7" stroke="#000000" points="908.4187,-122 905.4187,-126 884.4187,-126 881.4187,-122 781.5813,-122 781.5813,-86 908.4187,-86 908.4187,-122"/>
<text text-anchor="middle" x="845" y="-99.8" font-family="Times,serif" font-size="14.00" fill="#000000">MatToolbarModule</text>
</g>
<!-- MatToolbarModule&#45;&gt;MaterialDesignModule -->
<g id="edge7" class="edge">
<title>MatToolbarModule&#45;&gt;MaterialDesignModule</title>
<path fill="none" stroke="#000000" d="M870.4478,-122.1061C870.4478,-122.1061 870.4478,-140.991 870.4478,-140.991"/>
<polygon fill="#000000" stroke="#000000" points="866.9478,-140.9909 870.4478,-150.991 873.9478,-140.991 866.9478,-140.9909"/>
</g>
<!-- MatAutocompleteModule -->
<g id="node8" class="node">
<title>MatAutocompleteModule</title>
<polygon fill="#8dd3c7" stroke="#000000" points="763.9129,-122 760.9129,-126 739.9129,-126 736.9129,-122 602.0871,-122 602.0871,-86 763.9129,-86 763.9129,-122"/>
<text text-anchor="middle" x="683" y="-99.8" font-family="Times,serif" font-size="14.00" fill="#000000">MatAutocompleteModule</text>
</g>
<!-- MatAutocompleteModule&#45;&gt;MaterialDesignModule -->
<g id="edge8" class="edge">
<title>MatAutocompleteModule&#45;&gt;MaterialDesignModule</title>
<path fill="none" stroke="#000000" d="M730.8736,-122.1243C730.8736,-136.7832 730.8736,-155 730.8736,-155 730.8736,-155 822.7454,-155 822.7454,-155"/>
<polygon fill="#000000" stroke="#000000" points="822.7454,-158.5001 832.7454,-155 822.7453,-151.5001 822.7454,-158.5001"/>
</g>
<!-- MatTableModule -->
<g id="node9" class="node">
<title>MatTableModule</title>
<polygon fill="#8dd3c7" stroke="#000000" points="583.972,-122 580.972,-126 559.972,-126 556.972,-122 470.028,-122 470.028,-86 583.972,-86 583.972,-122"/>
<text text-anchor="middle" x="527" y="-99.8" font-family="Times,serif" font-size="14.00" fill="#000000">MatTableModule</text>
</g>
<!-- MatTableModule&#45;&gt;MaterialDesignModule -->
<g id="edge9" class="edge">
<title>MatTableModule&#45;&gt;MaterialDesignModule</title>
<path fill="none" stroke="#000000" d="M573.125,-122.0091C573.125,-138.0494 573.125,-159 573.125,-159 573.125,-159 822.5371,-159 822.5371,-159"/>
<polygon fill="#000000" stroke="#000000" points="822.5371,-162.5001 832.5371,-159 822.537,-155.5001 822.5371,-162.5001"/>
</g>
<!-- MatPaginatorModule -->
<g id="node10" class="node">
<title>MatPaginatorModule</title>
<polygon fill="#8dd3c7" stroke="#000000" points="451.7534,-122 448.7534,-126 427.7534,-126 424.7534,-122 316.2466,-122 316.2466,-86 451.7534,-86 451.7534,-122"/>
<text text-anchor="middle" x="384" y="-99.8" font-family="Times,serif" font-size="14.00" fill="#000000">MatPaginatorModule</text>
</g>
<!-- MatPaginatorModule&#45;&gt;MaterialDesignModule -->
<g id="edge10" class="edge">
<title>MatPaginatorModule&#45;&gt;MaterialDesignModule</title>
<path fill="none" stroke="#000000" d="M415.7102,-122.0336C415.7102,-139.0597 415.7102,-162 415.7102,-162 415.7102,-162 822.8636,-162 822.8636,-162"/>
<polygon fill="#000000" stroke="#000000" points="822.8636,-165.5001 832.8636,-162 822.8635,-158.5001 822.8636,-165.5001"/>
</g>
<!-- MatSnackBarModule -->
<g id="node11" class="node">
<title>MatSnackBarModule</title>
<polygon fill="#8dd3c7" stroke="#000000" points="298.024,-122 295.024,-126 274.024,-126 271.024,-122 161.976,-122 161.976,-86 298.024,-86 298.024,-122"/>
<text text-anchor="middle" x="230" y="-99.8" font-family="Times,serif" font-size="14.00" fill="#000000">MatSnackBarModule</text>
</g>
<!-- MatSnackBarModule&#45;&gt;MaterialDesignModule -->
<g id="edge11" class="edge">
<title>MatSnackBarModule&#45;&gt;MaterialDesignModule</title>
<path fill="none" stroke="#000000" d="M268.2053,-122.2667C268.2053,-140.5552 268.2053,-166 268.2053,-166 268.2053,-166 822.8368,-166 822.8368,-166"/>
<polygon fill="#000000" stroke="#000000" points="822.8369,-169.5001 832.8368,-166 822.8368,-162.5001 822.8369,-169.5001"/>
</g>
<!-- MatDialogModule -->
<g id="node12" class="node">
<title>MatDialogModule</title>
<polygon fill="#8dd3c7" stroke="#000000" points="144.2022,-122 141.2022,-126 120.2022,-126 117.2022,-122 23.7978,-122 23.7978,-86 144.2022,-86 144.2022,-122"/>
<text text-anchor="middle" x="84" y="-99.8" font-family="Times,serif" font-size="14.00" fill="#000000">MatDialogModule</text>
</g>
<!-- MatDialogModule&#45;&gt;MaterialDesignModule -->
<g id="edge12" class="edge">
<title>MatDialogModule&#45;&gt;MaterialDesignModule</title>
<path fill="none" stroke="#000000" d="M112.7372,-122.1061C112.7372,-141.3391 112.7372,-169 112.7372,-169 112.7372,-169 822.7936,-169 822.7936,-169"/>
<polygon fill="#000000" stroke="#000000" points="822.7937,-172.5001 832.7936,-169 822.7936,-165.5001 822.7937,-172.5001"/>
</g>
<!-- MatButtonModule  -->
<g id="node14" class="node">
<title>MatButtonModule </title>
<polygon fill="#fb8072" stroke="#000000" points="1694.7177,-252 1571.2823,-252 1571.2823,-216 1694.7177,-216 1694.7177,-252"/>
<text text-anchor="middle" x="1633" y="-229.8" font-family="Times,serif" font-size="14.00" fill="#000000">MatButtonModule </text>
</g>
<!-- MaterialDesignModule&#45;&gt;MatButtonModule  -->
<g id="edge13" class="edge">
<title>MaterialDesignModule&#45;&gt;MatButtonModule </title>
<path fill="none" stroke="#000000" stroke-dasharray="5,2" d="M979.1728,-173C1156.1359,-173 1592.787,-173 1592.787,-173 1592.787,-173 1592.787,-205.698 1592.787,-205.698"/>
<polygon fill="#000000" stroke="#000000" points="1589.2871,-205.698 1592.787,-215.698 1596.2871,-205.698 1589.2871,-205.698"/>
</g>
<!-- MatCheckboxModule  -->
<g id="node15" class="node">
<title>MatCheckboxModule </title>
<polygon fill="#fb8072" stroke="#000000" points="1553.3659,-252 1410.6341,-252 1410.6341,-216 1553.3659,-216 1553.3659,-252"/>
<text text-anchor="middle" x="1482" y="-229.8" font-family="Times,serif" font-size="14.00" fill="#000000">MatCheckboxModule </text>
</g>
<!-- MaterialDesignModule&#45;&gt;MatCheckboxModule  -->
<g id="edge14" class="edge">
<title>MaterialDesignModule&#45;&gt;MatCheckboxModule </title>
<path fill="none" stroke="#000000" stroke-dasharray="5,2" d="M979.1715,-177C1124.1989,-177 1434.2365,-177 1434.2365,-177 1434.2365,-177 1434.2365,-205.9648 1434.2365,-205.9648"/>
<polygon fill="#000000" stroke="#000000" points="1430.7366,-205.9648 1434.2365,-215.9648 1437.7366,-205.9649 1430.7366,-205.9648"/>
</g>
<!-- MatCardModule  -->
<g id="node16" class="node">
<title>MatCardModule </title>
<polygon fill="#fb8072" stroke="#000000" points="1392.3116,-252 1279.6884,-252 1279.6884,-216 1392.3116,-216 1392.3116,-252"/>
<text text-anchor="middle" x="1336" y="-229.8" font-family="Times,serif" font-size="14.00" fill="#000000">MatCardModule </text>
</g>
<!-- MaterialDesignModule&#45;&gt;MatCardModule  -->
<g id="edge15" class="edge">
<title>MaterialDesignModule&#45;&gt;MatCardModule </title>
<path fill="none" stroke="#000000" stroke-dasharray="5,2" d="M979.2212,-180C1094.4697,-180 1305.2099,-180 1305.2099,-180 1305.2099,-180 1305.2099,-205.7181 1305.2099,-205.7181"/>
<polygon fill="#000000" stroke="#000000" points="1301.7099,-205.718 1305.2099,-215.7181 1308.7099,-205.7181 1301.7099,-205.718"/>
</g>
<!-- MatInputModule  -->
<g id="node17" class="node">
<title>MatInputModule </title>
<polygon fill="#fb8072" stroke="#000000" points="1261.6509,-252 1146.3491,-252 1146.3491,-216 1261.6509,-216 1261.6509,-252"/>
<text text-anchor="middle" x="1204" y="-229.8" font-family="Times,serif" font-size="14.00" fill="#000000">MatInputModule </text>
</g>
<!-- MaterialDesignModule&#45;&gt;MatInputModule  -->
<g id="edge16" class="edge">
<title>MaterialDesignModule&#45;&gt;MatInputModule </title>
<path fill="none" stroke="#000000" stroke-dasharray="5,2" d="M979.2363,-184C1058.5907,-184 1174.0153,-184 1174.0153,-184 1174.0153,-184 1174.0153,-205.9489 1174.0153,-205.9489"/>
<polygon fill="#000000" stroke="#000000" points="1170.5153,-205.9488 1174.0153,-215.9489 1177.5153,-205.9489 1170.5153,-205.9488"/>
</g>
<!-- MatFormFieldModule  -->
<g id="node18" class="node">
<title>MatFormFieldModule </title>
<polygon fill="#fb8072" stroke="#000000" points="1128.2121,-252 983.7879,-252 983.7879,-216 1128.2121,-216 1128.2121,-252"/>
<text text-anchor="middle" x="1056" y="-229.8" font-family="Times,serif" font-size="14.00" fill="#000000">MatFormFieldModule </text>
</g>
<!-- MaterialDesignModule&#45;&gt;MatFormFieldModule  -->
<g id="edge17" class="edge">
<title>MaterialDesignModule&#45;&gt;MatFormFieldModule </title>
<path fill="none" stroke="#000000" stroke-dasharray="5,2" d="M972.6086,-187.1061C972.6086,-206.3391 972.6086,-234 972.6086,-234 972.6086,-234 973.6987,-234 973.6987,-234"/>
<polygon fill="#000000" stroke="#000000" points="973.5106,-237.5001 983.5105,-234 973.5105,-230.5001 973.5106,-237.5001"/>
</g>
<!-- MatSelectModule  -->
<g id="node19" class="node">
<title>MatSelectModule </title>
<polygon fill="#fb8072" stroke="#000000" points="965.8074,-252 846.1926,-252 846.1926,-216 965.8074,-216 965.8074,-252"/>
<text text-anchor="middle" x="906" y="-229.8" font-family="Times,serif" font-size="14.00" fill="#000000">MatSelectModule </text>
</g>
<!-- MaterialDesignModule&#45;&gt;MatSelectModule  -->
<g id="edge18" class="edge">
<title>MaterialDesignModule&#45;&gt;MatSelectModule </title>
<path fill="none" stroke="#000000" stroke-dasharray="5,2" d="M906,-187.1061C906,-187.1061 906,-205.991 906,-205.991"/>
<polygon fill="#000000" stroke="#000000" points="902.5001,-205.9909 906,-215.991 909.5001,-205.991 902.5001,-205.9909"/>
</g>
<!-- MatToolbarModule  -->
<g id="node20" class="node">
<title>MatToolbarModule </title>
<polygon fill="#fb8072" stroke="#000000" points="827.918,-252 698.082,-252 698.082,-216 827.918,-216 827.918,-252"/>
<text text-anchor="middle" x="763" y="-229.8" font-family="Times,serif" font-size="14.00" fill="#000000">MatToolbarModule </text>
</g>
<!-- MaterialDesignModule&#45;&gt;MatToolbarModule  -->
<g id="edge19" class="edge">
<title>MaterialDesignModule&#45;&gt;MatToolbarModule </title>
<path fill="none" stroke="#000000" stroke-dasharray="5,2" d="M839.3915,-187.1061C839.3915,-206.3391 839.3915,-234 839.3915,-234 839.3915,-234 838.1196,-234 838.1196,-234"/>
<polygon fill="#000000" stroke="#000000" points="838.1197,-230.5001 828.1196,-234 838.1196,-237.5001 838.1197,-230.5001"/>
</g>
<!-- MatTableModule  -->
<g id="node21" class="node">
<title>MatTableModule </title>
<polygon fill="#fb8072" stroke="#000000" points="679.973,-252 562.027,-252 562.027,-216 679.973,-216 679.973,-252"/>
<text text-anchor="middle" x="621" y="-229.8" font-family="Times,serif" font-size="14.00" fill="#000000">MatTableModule </text>
</g>
<!-- MaterialDesignModule&#45;&gt;MatTableModule  -->
<g id="edge20" class="edge">
<title>MaterialDesignModule&#45;&gt;MatTableModule </title>
<path fill="none" stroke="#000000" stroke-dasharray="5,2" d="M832.5388,-184C754.1178,-184 641.0149,-184 641.0149,-184 641.0149,-184 641.0149,-205.9489 641.0149,-205.9489"/>
<polygon fill="#000000" stroke="#000000" points="637.515,-205.9488 641.0149,-215.9489 644.515,-205.9489 637.515,-205.9488"/>
</g>
<!-- MatAutocompleteModule  -->
<g id="node22" class="node">
<title>MatAutocompleteModule </title>
<polygon fill="#fb8072" stroke="#000000" points="544.4124,-252 379.5876,-252 379.5876,-216 544.4124,-216 544.4124,-252"/>
<text text-anchor="middle" x="462" y="-229.8" font-family="Times,serif" font-size="14.00" fill="#000000">MatAutocompleteModule </text>
</g>
<!-- MaterialDesignModule&#45;&gt;MatAutocompleteModule  -->
<g id="edge21" class="edge">
<title>MaterialDesignModule&#45;&gt;MatAutocompleteModule </title>
<path fill="none" stroke="#000000" stroke-dasharray="5,2" d="M832.8604,-180C717.7403,-180 507.2351,-180 507.2351,-180 507.2351,-180 507.2351,-205.7181 507.2351,-205.7181"/>
<polygon fill="#000000" stroke="#000000" points="503.7352,-205.718 507.2351,-215.7181 510.7352,-205.7181 503.7352,-205.718"/>
</g>
<!-- MatDialogModule  -->
<g id="node23" class="node">
<title>MatDialogModule </title>
<polygon fill="#fb8072" stroke="#000000" points="361.7024,-252 238.2976,-252 238.2976,-216 361.7024,-216 361.7024,-252"/>
<text text-anchor="middle" x="300" y="-229.8" font-family="Times,serif" font-size="14.00" fill="#000000">MatDialogModule </text>
</g>
<!-- MaterialDesignModule&#45;&gt;MatDialogModule  -->
<g id="edge22" class="edge">
<title>MaterialDesignModule&#45;&gt;MatDialogModule </title>
<path fill="none" stroke="#000000" stroke-dasharray="5,2" d="M832.7442,-177C679.4634,-177 338.9872,-177 338.9872,-177 338.9872,-177 338.9872,-205.9648 338.9872,-205.9648"/>
<polygon fill="#000000" stroke="#000000" points="335.4873,-205.9648 338.9872,-215.9648 342.4873,-205.9649 335.4873,-205.9648"/>
</g>
<!-- MatPaginatorModule  -->
<g id="node24" class="node">
<title>MatPaginatorModule </title>
<polygon fill="#fb8072" stroke="#000000" points="220.7534,-252 81.2466,-252 81.2466,-216 220.7534,-216 220.7534,-252"/>
<text text-anchor="middle" x="151" y="-229.8" font-family="Times,serif" font-size="14.00" fill="#000000">MatPaginatorModule </text>
</g>
<!-- MaterialDesignModule&#45;&gt;MatPaginatorModule  -->
<g id="edge23" class="edge">
<title>MaterialDesignModule&#45;&gt;MatPaginatorModule </title>
<path fill="none" stroke="#000000" stroke-dasharray="5,2" d="M832.8613,-173C650.6783,-173 191.1825,-173 191.1825,-173 191.1825,-173 191.1825,-205.698 191.1825,-205.698"/>
<polygon fill="#000000" stroke="#000000" points="187.6826,-205.698 191.1825,-215.698 194.6826,-205.698 187.6826,-205.698"/>
</g>
</g>
</svg>
