<?xml version="1.0" encoding="UTF-8" standalone="no"?>
<!DOCTYPE svg PUBLIC "-//W3C//DTD SVG 1.1//EN"
 "http://www.w3.org/Graphics/SVG/1.1/DTD/svg11.dtd">
<!-- Generated by graphviz version 2.40.1 (20161225.0304)
 -->
<!-- Title: dependencies Pages: 1 -->
<svg width="1170pt" height="284pt"
 viewBox="0.00 0.00 1170.00 284.00" xmlns="http://www.w3.org/2000/svg" xmlns:xlink="http://www.w3.org/1999/xlink">
<g id="graph0" class="graph" transform="scale(1 1) rotate(0) translate(4 280)">
<title>dependencies</title>
<polygon fill="#ffffff" stroke="transparent" points="-4,4 -4,-280 1166,-280 1166,4 -4,4"/>
<text text-anchor="start" x="560.0091" y="-42.4" font-family="sans-serif" font-weight="bold" font-size="14.00" fill="#000000">Legend</text>
<polygon fill="#ffffb3" stroke="transparent" points="347,-10 347,-30 367,-30 367,-10 347,-10"/>
<text text-anchor="start" x="370.629" y="-15.4" font-family="sans-serif" font-size="14.00" fill="#000000"> &#160;Declarations</text>
<polygon fill="#8dd3c7" stroke="transparent" points="460,-10 460,-30 480,-30 480,-10 460,-10"/>
<text text-anchor="start" x="483.7251" y="-15.4" font-family="sans-serif" font-size="14.00" fill="#000000"> &#160;Module</text>
<polygon fill="#80b1d3" stroke="transparent" points="546,-10 546,-30 566,-30 566,-10 546,-10"/>
<text text-anchor="start" x="569.7812" y="-15.4" font-family="sans-serif" font-size="14.00" fill="#000000"> &#160;Bootstrap</text>
<polygon fill="#fdb462" stroke="transparent" points="643,-10 643,-30 663,-30 663,-10 643,-10"/>
<text text-anchor="start" x="666.6732" y="-15.4" font-family="sans-serif" font-size="14.00" fill="#000000"> &#160;Providers</text>
<polygon fill="#fb8072" stroke="transparent" points="739,-10 739,-30 759,-30 759,-10 739,-10"/>
<text text-anchor="start" x="762.7258" y="-15.4" font-family="sans-serif" font-size="14.00" fill="#000000"> &#160;Exports</text>
<g id="clust1" class="cluster">
<title>cluster_RegisterModule</title>
<polygon fill="none" stroke="#000000" stroke-dasharray="1,5" points="8,-70 8,-268 1154,-268 1154,-70 8,-70"/>
</g>
<g id="clust2" class="cluster">
<title>cluster_RegisterModule_declarations</title>
<polygon fill="none" stroke="#000000" points="1002,-78 1002,-130 1146,-130 1146,-78 1002,-78"/>
</g>
<g id="clust4" class="cluster">
<title>cluster_RegisterModule_imports</title>
<polygon fill="none" stroke="#000000" points="16,-78 16,-130 994,-130 994,-78 16,-78"/>
</g>
<g id="clust6" class="cluster">
<title>cluster_RegisterModule_bootstrap</title>
<polygon fill="none" stroke="#000000" points="505,-208 505,-260 653,-260 653,-208 505,-208"/>
</g>
<!-- RegisterComponent -->
<g id="node1" class="node">
<title>RegisterComponent</title>
<polygon fill="#ffffb3" stroke="#000000" points="1137.9846,-122 1010.0154,-122 1010.0154,-86 1137.9846,-86 1137.9846,-122"/>
<text text-anchor="middle" x="1074" y="-99.8" font-family="Times,serif" font-size="14.00" fill="#000000">RegisterComponent</text>
</g>
<!-- RegisterModule -->
<g id="node2" class="node">
<title>RegisterModule</title>
<polygon fill="#8dd3c7" stroke="#000000" points="632.2022,-187 629.2022,-191 608.2022,-191 605.2022,-187 525.7978,-187 525.7978,-151 632.2022,-151 632.2022,-187"/>
<text text-anchor="middle" x="579" y="-164.8" font-family="Times,serif" font-size="14.00" fill="#000000">RegisterModule</text>
</g>
<!-- RegisterComponent&#45;&gt;RegisterModule -->
<g id="edge1" class="edge">
<title>RegisterComponent&#45;&gt;RegisterModule</title>
<path fill="none" stroke="#000000" d="M1074,-122.2921C1074,-144.2057 1074,-178 1074,-178 1074,-178 642.444,-178 642.444,-178"/>
<polygon fill="#000000" stroke="#000000" points="642.444,-174.5001 632.444,-178 642.4439,-181.5001 642.444,-174.5001"/>
</g>
<!-- RegisterComponent  -->
<g id="node10" class="node">
<title>RegisterComponent </title>
<polygon fill="#80b1d3" stroke="#000000" points="644.9855,-252 513.0145,-252 513.0145,-216 644.9855,-216 644.9855,-252"/>
<text text-anchor="middle" x="579" y="-229.8" font-family="Times,serif" font-size="14.00" fill="#000000">RegisterComponent </text>
</g>
<!-- RegisterModule&#45;&gt;RegisterComponent  -->
<g id="edge9" class="edge">
<title>RegisterModule&#45;&gt;RegisterComponent </title>
<path fill="none" stroke="#000000" stroke-dasharray="1,5" d="M579,-187.1061C579,-187.1061 579,-205.991 579,-205.991"/>
<polygon fill="#000000" stroke="#000000" points="575.5001,-205.9909 579,-215.991 582.5001,-205.991 575.5001,-205.9909"/>
</g>
<!-- HttpClientModule -->
<g id="node3" class="node">
<title>HttpClientModule</title>
<polygon fill="#8dd3c7" stroke="#000000" points="986.1611,-122 983.1611,-126 962.1611,-126 959.1611,-122 867.8389,-122 867.8389,-86 986.1611,-86 986.1611,-122"/>
<text text-anchor="middle" x="927" y="-99.8" font-family="Times,serif" font-size="14.00" fill="#000000">HttpClientModule</text>
</g>
<!-- HttpClientModule&#45;&gt;RegisterModule -->
<g id="edge2" class="edge">
<title>HttpClientModule&#45;&gt;RegisterModule</title>
<path fill="none" stroke="#000000" d="M927,-122.1061C927,-141.3391 927,-169 927,-169 927,-169 642.2325,-169 642.2325,-169"/>
<polygon fill="#000000" stroke="#000000" points="642.2326,-165.5001 632.2325,-169 642.2325,-172.5001 642.2326,-165.5001"/>
</g>
<!-- CommonModule -->
<g id="node4" class="node">
<title>CommonModule</title>
<polygon fill="#8dd3c7" stroke="#000000" points="849.6681,-122 846.6681,-126 825.6681,-126 822.6681,-122 738.3319,-122 738.3319,-86 849.6681,-86 849.6681,-122"/>
<text text-anchor="middle" x="794" y="-99.8" font-family="Times,serif" font-size="14.00" fill="#000000">CommonModule</text>
</g>
<!-- CommonModule&#45;&gt;RegisterModule -->
<g id="edge3" class="edge">
<title>CommonModule&#45;&gt;RegisterModule</title>
<path fill="none" stroke="#000000" d="M794,-122.027C794,-138.3976 794,-160 794,-160 794,-160 642.1461,-160 642.1461,-160"/>
<polygon fill="#000000" stroke="#000000" points="642.1461,-156.5001 632.1461,-160 642.146,-163.5001 642.1461,-156.5001"/>
</g>
<!-- ReactiveFormsModule -->
<g id="node5" class="node">
<title>ReactiveFormsModule</title>
<polygon fill="#8dd3c7" stroke="#000000" points="720.3047,-122 717.3047,-126 696.3047,-126 693.3047,-122 575.6953,-122 575.6953,-86 720.3047,-86 720.3047,-122"/>
<text text-anchor="middle" x="648" y="-99.8" font-family="Times,serif" font-size="14.00" fill="#000000">ReactiveFormsModule</text>
</g>
<!-- ReactiveFormsModule&#45;&gt;RegisterModule -->
<g id="edge4" class="edge">
<title>ReactiveFormsModule&#45;&gt;RegisterModule</title>
<path fill="none" stroke="#000000" d="M603.9744,-122.1061C603.9744,-122.1061 603.9744,-140.991 603.9744,-140.991"/>
<polygon fill="#000000" stroke="#000000" points="600.4745,-140.9909 603.9744,-150.991 607.4745,-140.991 600.4745,-140.9909"/>
</g>
<!-- FormsModule -->
<g id="node6" class="node">
<title>FormsModule</title>
<polygon fill="#8dd3c7" stroke="#000000" points="557.8288,-122 554.8288,-126 533.8288,-126 530.8288,-122 462.1712,-122 462.1712,-86 557.8288,-86 557.8288,-122"/>
<text text-anchor="middle" x="510" y="-99.8" font-family="Times,serif" font-size="14.00" fill="#000000">FormsModule</text>
</g>
<!-- FormsModule&#45;&gt;RegisterModule -->
<g id="edge5" class="edge">
<title>FormsModule&#45;&gt;RegisterModule</title>
<path fill="none" stroke="#000000" d="M541.7816,-122.1061C541.7816,-122.1061 541.7816,-140.991 541.7816,-140.991"/>
<polygon fill="#000000" stroke="#000000" points="538.2816,-140.9909 541.7816,-150.991 545.2816,-140.991 538.2816,-140.9909"/>
</g>
<!-- RegisterRoutingModule -->
<g id="node7" class="node">
<title>RegisterRoutingModule</title>
<polygon fill="#8dd3c7" stroke="#000000" points="444.8201,-122 441.8201,-126 420.8201,-126 417.8201,-122 293.1799,-122 293.1799,-86 444.8201,-86 444.8201,-122"/>
<text text-anchor="middle" x="369" y="-99.8" font-family="Times,serif" font-size="14.00" fill="#000000">RegisterRoutingModule</text>
</g>
<!-- RegisterRoutingModule&#45;&gt;RegisterModule -->
<g id="edge6" class="edge">
<title>RegisterRoutingModule&#45;&gt;RegisterModule</title>
<path fill="none" stroke="#000000" d="M369,-122.027C369,-138.3976 369,-160 369,-160 369,-160 515.7367,-160 515.7367,-160"/>
<polygon fill="#000000" stroke="#000000" points="515.7367,-163.5001 525.7367,-160 515.7366,-156.5001 515.7367,-163.5001"/>
</g>
<!-- CoreModule -->
<g id="node8" class="node">
<title>CoreModule</title>
<polygon fill="#8dd3c7" stroke="#000000" points="275.2619,-122 272.2619,-126 251.2619,-126 248.2619,-122 188.7381,-122 188.7381,-86 275.2619,-86 275.2619,-122"/>
<text text-anchor="middle" x="232" y="-99.8" font-family="Times,serif" font-size="14.00" fill="#000000">CoreModule</text>
</g>
<!-- CoreModule&#45;&gt;RegisterModule -->
<g id="edge7" class="edge">
<title>CoreModule&#45;&gt;RegisterModule</title>
<path fill="none" stroke="#000000" d="M232,-122.1061C232,-141.3391 232,-169 232,-169 232,-169 515.5417,-169 515.5417,-169"/>
<polygon fill="#000000" stroke="#000000" points="515.5417,-172.5001 525.5417,-169 515.5417,-165.5001 515.5417,-172.5001"/>
</g>
<!-- MaterialDesignModule -->
<g id="node9" class="node">
<title>MaterialDesignModule</title>
<polygon fill="#8dd3c7" stroke="#000000" points="170.1275,-122 167.1275,-126 146.1275,-126 143.1275,-122 23.8725,-122 23.8725,-86 170.1275,-86 170.1275,-122"/>
<text text-anchor="middle" x="97" y="-99.8" font-family="Times,serif" font-size="14.00" fill="#000000">MaterialDesignModule</text>
</g>
<!-- MaterialDesignModule&#45;&gt;RegisterModule -->
<g id="edge8" class="edge">
<title>MaterialDesignModule&#45;&gt;RegisterModule</title>
<path fill="none" stroke="#000000" d="M97,-122.2921C97,-144.2057 97,-178 97,-178 97,-178 515.5759,-178 515.5759,-178"/>
<polygon fill="#000000" stroke="#000000" points="515.576,-181.5001 525.5759,-178 515.5759,-174.5001 515.576,-181.5001"/>
</g>
</g>
</svg>
