<?xml version="1.0" encoding="UTF-8" standalone="no"?>
<!DOCTYPE svg PUBLIC "-//W3C//DTD SVG 1.1//EN"
 "http://www.w3.org/Graphics/SVG/1.1/DTD/svg11.dtd">
<!-- Generated by graphviz version 2.40.1 (20161225.0304)
 -->
<!-- Title: dependencies Pages: 1 -->
<svg width="1190pt" height="284pt"
 viewBox="0.00 0.00 1190.00 284.00" xmlns="http://www.w3.org/2000/svg" xmlns:xlink="http://www.w3.org/1999/xlink">
<g id="graph0" class="graph" transform="scale(1 1) rotate(0) translate(4 280)">
<title>dependencies</title>
<polygon fill="#ffffff" stroke="transparent" points="-4,4 -4,-280 1186,-280 1186,4 -4,4"/>
<text text-anchor="start" x="570.0091" y="-42.4" font-family="sans-serif" font-weight="bold" font-size="14.00" fill="#000000">Legend</text>
<polygon fill="#ffffb3" stroke="transparent" points="357,-10 357,-30 377,-30 377,-10 357,-10"/>
<text text-anchor="start" x="380.629" y="-15.4" font-family="sans-serif" font-size="14.00" fill="#000000"> &#160;Declarations</text>
<polygon fill="#8dd3c7" stroke="transparent" points="470,-10 470,-30 490,-30 490,-10 470,-10"/>
<text text-anchor="start" x="493.7251" y="-15.4" font-family="sans-serif" font-size="14.00" fill="#000000"> &#160;Module</text>
<polygon fill="#80b1d3" stroke="transparent" points="556,-10 556,-30 576,-30 576,-10 556,-10"/>
<text text-anchor="start" x="579.7812" y="-15.4" font-family="sans-serif" font-size="14.00" fill="#000000"> &#160;Bootstrap</text>
<polygon fill="#fdb462" stroke="transparent" points="653,-10 653,-30 673,-30 673,-10 653,-10"/>
<text text-anchor="start" x="676.6732" y="-15.4" font-family="sans-serif" font-size="14.00" fill="#000000"> &#160;Providers</text>
<polygon fill="#fb8072" stroke="transparent" points="749,-10 749,-30 769,-30 769,-10 749,-10"/>
<text text-anchor="start" x="772.7258" y="-15.4" font-family="sans-serif" font-size="14.00" fill="#000000"> &#160;Exports</text>
<g id="clust1" class="cluster">
<title>cluster_WelcomeModule</title>
<polygon fill="none" stroke="#000000" stroke-dasharray="1,5" points="8,-70 8,-268 1174,-268 1174,-70 8,-70"/>
</g>
<g id="clust2" class="cluster">
<title>cluster_WelcomeModule_declarations</title>
<polygon fill="none" stroke="#000000" points="597,-78 597,-130 1166,-130 1166,-78 597,-78"/>
</g>
<g id="clust6" class="cluster">
<title>cluster_WelcomeModule_imports</title>
<polygon fill="none" stroke="#000000" points="16,-78 16,-130 589,-130 589,-78 16,-78"/>
</g>
<g id="clust8" class="cluster">
<title>cluster_WelcomeModule_bootstrap</title>
<polygon fill="none" stroke="#000000" points="425,-208 425,-260 579,-260 579,-208 425,-208"/>
</g>
<!-- WelcomeComponent -->
<g id="node1" class="node">
<title>WelcomeComponent</title>
<polygon fill="#ffffb3" stroke="#000000" points="1158.472,-122 1023.528,-122 1023.528,-86 1158.472,-86 1158.472,-122"/>
<text text-anchor="middle" x="1091" y="-99.8" font-family="Times,serif" font-size="14.00" fill="#000000">WelcomeComponent</text>
</g>
<!-- WelcomeModule -->
<g id="node4" class="node">
<title>WelcomeModule</title>
<polygon fill="#8dd3c7" stroke="#000000" points="558.6896,-187 555.6896,-191 534.6896,-191 531.6896,-187 445.3104,-187 445.3104,-151 558.6896,-151 558.6896,-187"/>
<text text-anchor="middle" x="502" y="-164.8" font-family="Times,serif" font-size="14.00" fill="#000000">WelcomeModule</text>
</g>
<!-- WelcomeComponent&#45;&gt;WelcomeModule -->
<g id="edge1" class="edge">
<title>WelcomeComponent&#45;&gt;WelcomeModule</title>
<path fill="none" stroke="#000000" d="M1091,-122.2921C1091,-144.2057 1091,-178 1091,-178 1091,-178 568.7431,-178 568.7431,-178"/>
<polygon fill="#000000" stroke="#000000" points="568.7432,-174.5001 558.7431,-178 568.7431,-181.5001 568.7432,-174.5001"/>
</g>
<!-- ListAnnouncementsComponent -->
<g id="node2" class="node">
<title>ListAnnouncementsComponent</title>
<polygon fill="#ffffb3" stroke="#000000" points="1005.087,-122 810.913,-122 810.913,-86 1005.087,-86 1005.087,-122"/>
<text text-anchor="middle" x="908" y="-99.8" font-family="Times,serif" font-size="14.00" fill="#000000">ListAnnouncementsComponent</text>
</g>
<!-- ListAnnouncementsComponent&#45;&gt;WelcomeModule -->
<g id="edge2" class="edge">
<title>ListAnnouncementsComponent&#45;&gt;WelcomeModule</title>
<path fill="none" stroke="#000000" d="M908,-122.1061C908,-141.3391 908,-169 908,-169 908,-169 568.8801,-169 568.8801,-169"/>
<polygon fill="#000000" stroke="#000000" points="568.8801,-165.5001 558.8801,-169 568.88,-172.5001 568.8801,-165.5001"/>
</g>
<!-- ListJobApplicationComponent -->
<g id="node3" class="node">
<title>ListJobApplicationComponent</title>
<polygon fill="#ffffb3" stroke="#000000" points="793.1539,-122 604.8461,-122 604.8461,-86 793.1539,-86 793.1539,-122"/>
<text text-anchor="middle" x="699" y="-99.8" font-family="Times,serif" font-size="14.00" fill="#000000">ListJobApplicationComponent</text>
</g>
<!-- ListJobApplicationComponent&#45;&gt;WelcomeModule -->
<g id="edge3" class="edge">
<title>ListJobApplicationComponent&#45;&gt;WelcomeModule</title>
<path fill="none" stroke="#000000" d="M699,-122.027C699,-138.3976 699,-160 699,-160 699,-160 568.7163,-160 568.7163,-160"/>
<polygon fill="#000000" stroke="#000000" points="568.7163,-156.5001 558.7163,-160 568.7162,-163.5001 568.7163,-156.5001"/>
</g>
<!-- WelcomeComponent  -->
<g id="node9" class="node">
<title>WelcomeComponent </title>
<polygon fill="#80b1d3" stroke="#000000" points="571.4728,-252 432.5272,-252 432.5272,-216 571.4728,-216 571.4728,-252"/>
<text text-anchor="middle" x="502" y="-229.8" font-family="Times,serif" font-size="14.00" fill="#000000">WelcomeComponent </text>
</g>
<!-- WelcomeModule&#45;&gt;WelcomeComponent  -->
<g id="edge8" class="edge">
<title>WelcomeModule&#45;&gt;WelcomeComponent </title>
<path fill="none" stroke="#000000" stroke-dasharray="1,5" d="M502,-187.1061C502,-187.1061 502,-205.991 502,-205.991"/>
<polygon fill="#000000" stroke="#000000" points="498.5001,-205.9909 502,-215.991 505.5001,-205.991 498.5001,-205.9909"/>
</g>
<!-- WelcomeRoutingModule -->
<g id="node5" class="node">
<title>WelcomeRoutingModule</title>
<polygon fill="#8dd3c7" stroke="#000000" points="581.3075,-122 578.3075,-126 557.3075,-126 554.3075,-122 422.6925,-122 422.6925,-86 581.3075,-86 581.3075,-122"/>
<text text-anchor="middle" x="502" y="-99.8" font-family="Times,serif" font-size="14.00" fill="#000000">WelcomeRoutingModule</text>
</g>
<!-- WelcomeRoutingModule&#45;&gt;WelcomeModule -->
<g id="edge4" class="edge">
<title>WelcomeRoutingModule&#45;&gt;WelcomeModule</title>
<path fill="none" stroke="#000000" d="M502,-122.1061C502,-122.1061 502,-140.991 502,-140.991"/>
<polygon fill="#000000" stroke="#000000" points="498.5001,-140.9909 502,-150.991 505.5001,-140.991 498.5001,-140.9909"/>
</g>
<!-- CommonModule -->
<g id="node6" class="node">
<title>CommonModule</title>
<polygon fill="#8dd3c7" stroke="#000000" points="404.6681,-122 401.6681,-126 380.6681,-126 377.6681,-122 293.3319,-122 293.3319,-86 404.6681,-86 404.6681,-122"/>
<text text-anchor="middle" x="349" y="-99.8" font-family="Times,serif" font-size="14.00" fill="#000000">CommonModule</text>
</g>
<!-- CommonModule&#45;&gt;WelcomeModule -->
<g id="edge5" class="edge">
<title>CommonModule&#45;&gt;WelcomeModule</title>
<path fill="none" stroke="#000000" d="M349,-122.027C349,-138.3976 349,-160 349,-160 349,-160 435.0284,-160 435.0284,-160"/>
<polygon fill="#000000" stroke="#000000" points="435.0285,-163.5001 445.0284,-160 435.0284,-156.5001 435.0285,-163.5001"/>
</g>
<!-- MaterialDesignModule -->
<g id="node7" class="node">
<title>MaterialDesignModule</title>
<polygon fill="#8dd3c7" stroke="#000000" points="275.1275,-122 272.1275,-126 251.1275,-126 248.1275,-122 128.8725,-122 128.8725,-86 275.1275,-86 275.1275,-122"/>
<text text-anchor="middle" x="202" y="-99.8" font-family="Times,serif" font-size="14.00" fill="#000000">MaterialDesignModule</text>
</g>
<!-- MaterialDesignModule&#45;&gt;WelcomeModule -->
<g id="edge6" class="edge">
<title>MaterialDesignModule&#45;&gt;WelcomeModule</title>
<path fill="none" stroke="#000000" d="M202,-122.1061C202,-141.3391 202,-169 202,-169 202,-169 435.2196,-169 435.2196,-169"/>
<polygon fill="#000000" stroke="#000000" points="435.2196,-172.5001 445.2196,-169 435.2196,-165.5001 435.2196,-172.5001"/>
</g>
<!-- CoreModule -->
<g id="node8" class="node">
<title>CoreModule</title>
<polygon fill="#8dd3c7" stroke="#000000" points="110.2619,-122 107.2619,-126 86.2619,-126 83.2619,-122 23.7381,-122 23.7381,-86 110.2619,-86 110.2619,-122"/>
<text text-anchor="middle" x="67" y="-99.8" font-family="Times,serif" font-size="14.00" fill="#000000">CoreModule</text>
</g>
<!-- CoreModule&#45;&gt;WelcomeModule -->
<g id="edge7" class="edge">
<title>CoreModule&#45;&gt;WelcomeModule</title>
<path fill="none" stroke="#000000" d="M67,-122.2921C67,-144.2057 67,-178 67,-178 67,-178 435.1313,-178 435.1313,-178"/>
<polygon fill="#000000" stroke="#000000" points="435.1314,-181.5001 445.1313,-178 435.1313,-174.5001 435.1314,-181.5001"/>
</g>
</g>
</svg>
