<?xml version="1.0" encoding="UTF-8" standalone="no"?>
<!DOCTYPE svg PUBLIC "-//W3C//DTD SVG 1.1//EN"
 "http://www.w3.org/Graphics/SVG/1.1/DTD/svg11.dtd">
<!-- Generated by graphviz version 2.40.1 (20161225.0304)
 -->
<!-- Title: dependencies Pages: 1 -->
<svg width="1174pt" height="284pt"
 viewBox="0.00 0.00 1174.00 284.00" xmlns="http://www.w3.org/2000/svg" xmlns:xlink="http://www.w3.org/1999/xlink">
<g id="graph0" class="graph" transform="scale(1 1) rotate(0) translate(4 280)">
<title>dependencies</title>
<polygon fill="#ffffff" stroke="transparent" points="-4,4 -4,-280 1170,-280 1170,4 -4,4"/>
<text text-anchor="start" x="562.0091" y="-42.4" font-family="sans-serif" font-weight="bold" font-size="14.00" fill="#000000">Legend</text>
<polygon fill="#ffffb3" stroke="transparent" points="349,-10 349,-30 369,-30 369,-10 349,-10"/>
<text text-anchor="start" x="372.629" y="-15.4" font-family="sans-serif" font-size="14.00" fill="#000000"> &#160;Declarations</text>
<polygon fill="#8dd3c7" stroke="transparent" points="462,-10 462,-30 482,-30 482,-10 462,-10"/>
<text text-anchor="start" x="485.7251" y="-15.4" font-family="sans-serif" font-size="14.00" fill="#000000"> &#160;Module</text>
<polygon fill="#80b1d3" stroke="transparent" points="548,-10 548,-30 568,-30 568,-10 548,-10"/>
<text text-anchor="start" x="571.7812" y="-15.4" font-family="sans-serif" font-size="14.00" fill="#000000"> &#160;Bootstrap</text>
<polygon fill="#fdb462" stroke="transparent" points="645,-10 645,-30 665,-30 665,-10 645,-10"/>
<text text-anchor="start" x="668.6732" y="-15.4" font-family="sans-serif" font-size="14.00" fill="#000000"> &#160;Providers</text>
<polygon fill="#fb8072" stroke="transparent" points="741,-10 741,-30 761,-30 761,-10 741,-10"/>
<text text-anchor="start" x="764.7258" y="-15.4" font-family="sans-serif" font-size="14.00" fill="#000000"> &#160;Exports</text>
<g id="clust1" class="cluster">
<title>cluster_EvaluateModule</title>
<polygon fill="none" stroke="#000000" stroke-dasharray="1,5" points="8,-70 8,-268 1158,-268 1158,-70 8,-70"/>
</g>
<g id="clust2" class="cluster">
<title>cluster_EvaluateModule_declarations</title>
<polygon fill="none" stroke="#000000" points="1004,-78 1004,-130 1150,-130 1150,-78 1004,-78"/>
</g>
<g id="clust4" class="cluster">
<title>cluster_EvaluateModule_imports</title>
<polygon fill="none" stroke="#000000" points="16,-78 16,-130 996,-130 996,-78 16,-78"/>
</g>
<g id="clust6" class="cluster">
<title>cluster_EvaluateModule_bootstrap</title>
<polygon fill="none" stroke="#000000" points="506,-208 506,-260 656,-260 656,-208 506,-208"/>
</g>
<!-- EvaluateComponent -->
<g id="node1" class="node">
<title>EvaluateComponent</title>
<polygon fill="#ffffb3" stroke="#000000" points="1142.3104,-122 1011.6896,-122 1011.6896,-86 1142.3104,-86 1142.3104,-122"/>
<text text-anchor="middle" x="1077" y="-99.8" font-family="Times,serif" font-size="14.00" fill="#000000">EvaluateComponent</text>
</g>
<!-- EvaluateModule -->
<g id="node2" class="node">
<title>EvaluateModule</title>
<polygon fill="#8dd3c7" stroke="#000000" points="635.0284,-187 632.0284,-191 611.0284,-191 608.0284,-187 526.9716,-187 526.9716,-151 635.0284,-151 635.0284,-187"/>
<text text-anchor="middle" x="581" y="-164.8" font-family="Times,serif" font-size="14.00" fill="#000000">EvaluateModule</text>
</g>
<!-- EvaluateComponent&#45;&gt;EvaluateModule -->
<g id="edge1" class="edge">
<title>EvaluateComponent&#45;&gt;EvaluateModule</title>
<path fill="none" stroke="#000000" d="M1077,-122.2921C1077,-144.2057 1077,-178 1077,-178 1077,-178 645.4995,-178 645.4995,-178"/>
<polygon fill="#000000" stroke="#000000" points="645.4995,-174.5001 635.4995,-178 645.4995,-181.5001 645.4995,-174.5001"/>
</g>
<!-- EvaluateComponent  -->
<g id="node10" class="node">
<title>EvaluateComponent </title>
<polygon fill="#80b1d3" stroke="#000000" points="647.8101,-252 514.1899,-252 514.1899,-216 647.8101,-216 647.8101,-252"/>
<text text-anchor="middle" x="581" y="-229.8" font-family="Times,serif" font-size="14.00" fill="#000000">EvaluateComponent </text>
</g>
<!-- EvaluateModule&#45;&gt;EvaluateComponent  -->
<g id="edge9" class="edge">
<title>EvaluateModule&#45;&gt;EvaluateComponent </title>
<path fill="none" stroke="#000000" stroke-dasharray="1,5" d="M581,-187.1061C581,-187.1061 581,-205.991 581,-205.991"/>
<polygon fill="#000000" stroke="#000000" points="577.5001,-205.9909 581,-215.991 584.5001,-205.991 577.5001,-205.9909"/>
</g>
<!-- HttpClientModule -->
<g id="node3" class="node">
<title>HttpClientModule</title>
<polygon fill="#8dd3c7" stroke="#000000" points="988.1611,-122 985.1611,-126 964.1611,-126 961.1611,-122 869.8389,-122 869.8389,-86 988.1611,-86 988.1611,-122"/>
<text text-anchor="middle" x="929" y="-99.8" font-family="Times,serif" font-size="14.00" fill="#000000">HttpClientModule</text>
</g>
<!-- HttpClientModule&#45;&gt;EvaluateModule -->
<g id="edge2" class="edge">
<title>HttpClientModule&#45;&gt;EvaluateModule</title>
<path fill="none" stroke="#000000" d="M929,-122.1061C929,-141.3391 929,-169 929,-169 929,-169 645.375,-169 645.375,-169"/>
<polygon fill="#000000" stroke="#000000" points="645.375,-165.5001 635.375,-169 645.375,-172.5001 645.375,-165.5001"/>
</g>
<!-- CommonModule -->
<g id="node4" class="node">
<title>CommonModule</title>
<polygon fill="#8dd3c7" stroke="#000000" points="851.6681,-122 848.6681,-126 827.6681,-126 824.6681,-122 740.3319,-122 740.3319,-86 851.6681,-86 851.6681,-122"/>
<text text-anchor="middle" x="796" y="-99.8" font-family="Times,serif" font-size="14.00" fill="#000000">CommonModule</text>
</g>
<!-- CommonModule&#45;&gt;EvaluateModule -->
<g id="edge3" class="edge">
<title>CommonModule&#45;&gt;EvaluateModule</title>
<path fill="none" stroke="#000000" d="M796,-122.027C796,-138.3976 796,-160 796,-160 796,-160 645.2536,-160 645.2536,-160"/>
<polygon fill="#000000" stroke="#000000" points="645.2536,-156.5001 635.2536,-160 645.2535,-163.5001 645.2536,-156.5001"/>
</g>
<!-- ReactiveFormsModule -->
<g id="node5" class="node">
<title>ReactiveFormsModule</title>
<polygon fill="#8dd3c7" stroke="#000000" points="722.3047,-122 719.3047,-126 698.3047,-126 695.3047,-122 577.6953,-122 577.6953,-86 722.3047,-86 722.3047,-122"/>
<text text-anchor="middle" x="650" y="-99.8" font-family="Times,serif" font-size="14.00" fill="#000000">ReactiveFormsModule</text>
</g>
<!-- ReactiveFormsModule&#45;&gt;EvaluateModule -->
<g id="edge4" class="edge">
<title>ReactiveFormsModule&#45;&gt;EvaluateModule</title>
<path fill="none" stroke="#000000" d="M606.5558,-122.1061C606.5558,-122.1061 606.5558,-140.991 606.5558,-140.991"/>
<polygon fill="#000000" stroke="#000000" points="603.0558,-140.9909 606.5558,-150.991 610.0558,-140.991 603.0558,-140.9909"/>
</g>
<!-- FormsModule -->
<g id="node6" class="node">
<title>FormsModule</title>
<polygon fill="#8dd3c7" stroke="#000000" points="559.8288,-122 556.8288,-126 535.8288,-126 532.8288,-122 464.1712,-122 464.1712,-86 559.8288,-86 559.8288,-122"/>
<text text-anchor="middle" x="512" y="-99.8" font-family="Times,serif" font-size="14.00" fill="#000000">FormsModule</text>
</g>
<!-- FormsModule&#45;&gt;EvaluateModule -->
<g id="edge5" class="edge">
<title>FormsModule&#45;&gt;EvaluateModule</title>
<path fill="none" stroke="#000000" d="M543.2002,-122.1061C543.2002,-122.1061 543.2002,-140.991 543.2002,-140.991"/>
<polygon fill="#000000" stroke="#000000" points="539.7003,-140.9909 543.2002,-150.991 546.7003,-140.991 539.7003,-140.9909"/>
</g>
<!-- EvaluateRoutingModule -->
<g id="node7" class="node">
<title>EvaluateRoutingModule</title>
<polygon fill="#8dd3c7" stroke="#000000" points="446.6456,-122 443.6456,-126 422.6456,-126 419.6456,-122 293.3544,-122 293.3544,-86 446.6456,-86 446.6456,-122"/>
<text text-anchor="middle" x="370" y="-99.8" font-family="Times,serif" font-size="14.00" fill="#000000">EvaluateRoutingModule</text>
</g>
<!-- EvaluateRoutingModule&#45;&gt;EvaluateModule -->
<g id="edge6" class="edge">
<title>EvaluateRoutingModule&#45;&gt;EvaluateModule</title>
<path fill="none" stroke="#000000" d="M370,-122.027C370,-138.3976 370,-160 370,-160 370,-160 516.9363,-160 516.9363,-160"/>
<polygon fill="#000000" stroke="#000000" points="516.9363,-163.5001 526.9363,-160 516.9362,-156.5001 516.9363,-163.5001"/>
</g>
<!-- CoreModule -->
<g id="node8" class="node">
<title>CoreModule</title>
<polygon fill="#8dd3c7" stroke="#000000" points="275.2619,-122 272.2619,-126 251.2619,-126 248.2619,-122 188.7381,-122 188.7381,-86 275.2619,-86 275.2619,-122"/>
<text text-anchor="middle" x="232" y="-99.8" font-family="Times,serif" font-size="14.00" fill="#000000">CoreModule</text>
</g>
<!-- CoreModule&#45;&gt;EvaluateModule -->
<g id="edge7" class="edge">
<title>CoreModule&#45;&gt;EvaluateModule</title>
<path fill="none" stroke="#000000" d="M232,-122.1061C232,-141.3391 232,-169 232,-169 232,-169 516.8517,-169 516.8517,-169"/>
<polygon fill="#000000" stroke="#000000" points="516.8517,-172.5001 526.8517,-169 516.8516,-165.5001 516.8517,-172.5001"/>
</g>
<!-- MaterialDesignModule -->
<g id="node9" class="node">
<title>MaterialDesignModule</title>
<polygon fill="#8dd3c7" stroke="#000000" points="170.1275,-122 167.1275,-126 146.1275,-126 143.1275,-122 23.8725,-122 23.8725,-86 170.1275,-86 170.1275,-122"/>
<text text-anchor="middle" x="97" y="-99.8" font-family="Times,serif" font-size="14.00" fill="#000000">MaterialDesignModule</text>
</g>
<!-- MaterialDesignModule&#45;&gt;EvaluateModule -->
<g id="edge8" class="edge">
<title>MaterialDesignModule&#45;&gt;EvaluateModule</title>
<path fill="none" stroke="#000000" d="M97,-122.2921C97,-144.2057 97,-178 97,-178 97,-178 516.8879,-178 516.8879,-178"/>
<polygon fill="#000000" stroke="#000000" points="516.8879,-181.5001 526.8879,-178 516.8878,-174.5001 516.8879,-181.5001"/>
</g>
</g>
</svg>
