<?xml version="1.0" encoding="UTF-8" standalone="no"?>
<!DOCTYPE svg PUBLIC "-//W3C//DTD SVG 1.1//EN"
 "http://www.w3.org/Graphics/SVG/1.1/DTD/svg11.dtd">
<!-- Generated by graphviz version 2.40.1 (20161225.0304)
 -->
<!-- Title: dependencies Pages: 1 -->
<svg width="2173pt" height="284pt"
 viewBox="0.00 0.00 2173.00 284.00" xmlns="http://www.w3.org/2000/svg" xmlns:xlink="http://www.w3.org/1999/xlink">
<g id="graph0" class="graph" transform="scale(1 1) rotate(0) translate(4 280)">
<title>dependencies</title>
<polygon fill="#ffffff" stroke="transparent" points="-4,4 -4,-280 2169,-280 2169,4 -4,4"/>
<text text-anchor="start" x="1061.5091" y="-42.4" font-family="sans-serif" font-weight="bold" font-size="14.00" fill="#000000">Legend</text>
<polygon fill="#ffffb3" stroke="transparent" points="848.5,-10 848.5,-30 868.5,-30 868.5,-10 848.5,-10"/>
<text text-anchor="start" x="872.129" y="-15.4" font-family="sans-serif" font-size="14.00" fill="#000000"> &#160;Declarations</text>
<polygon fill="#8dd3c7" stroke="transparent" points="961.5,-10 961.5,-30 981.5,-30 981.5,-10 961.5,-10"/>
<text text-anchor="start" x="985.2251" y="-15.4" font-family="sans-serif" font-size="14.00" fill="#000000"> &#160;Module</text>
<polygon fill="#80b1d3" stroke="transparent" points="1047.5,-10 1047.5,-30 1067.5,-30 1067.5,-10 1047.5,-10"/>
<text text-anchor="start" x="1071.2812" y="-15.4" font-family="sans-serif" font-size="14.00" fill="#000000"> &#160;Bootstrap</text>
<polygon fill="#fdb462" stroke="transparent" points="1144.5,-10 1144.5,-30 1164.5,-30 1164.5,-10 1144.5,-10"/>
<text text-anchor="start" x="1168.1732" y="-15.4" font-family="sans-serif" font-size="14.00" fill="#000000"> &#160;Providers</text>
<polygon fill="#fb8072" stroke="transparent" points="1240.5,-10 1240.5,-30 1260.5,-30 1260.5,-10 1240.5,-10"/>
<text text-anchor="start" x="1264.2258" y="-15.4" font-family="sans-serif" font-size="14.00" fill="#000000"> &#160;Exports</text>
<g id="clust1" class="cluster">
<title>cluster_AppModule</title>
<polygon fill="none" stroke="#000000" stroke-dasharray="1,5" points="8,-70 8,-268 2157,-268 2157,-70 8,-70"/>
</g>
<g id="clust2" class="cluster">
<title>cluster_AppModule_declarations</title>
<polygon fill="none" stroke="#000000" points="1543,-78 1543,-130 2149,-130 2149,-78 1543,-78"/>
</g>
<g id="clust6" class="cluster">
<title>cluster_AppModule_imports</title>
<polygon fill="none" stroke="#000000" points="430,-78 430,-130 1535,-130 1535,-78 430,-78"/>
</g>
<g id="clust8" class="cluster">
<title>cluster_AppModule_bootstrap</title>
<polygon fill="none" stroke="#000000" points="921,-208 921,-260 1045,-260 1045,-208 921,-208"/>
</g>
<g id="clust9" class="cluster">
<title>cluster_AppModule_providers</title>
<polygon fill="none" stroke="#000000" points="16,-78 16,-130 422,-130 422,-78 16,-78"/>
</g>
<!-- AppComponent -->
<g id="node1" class="node">
<title>AppComponent</title>
<polygon fill="#ffffb3" stroke="#000000" points="2140.9399,-122 2035.0601,-122 2035.0601,-86 2140.9399,-86 2140.9399,-122"/>
<text text-anchor="middle" x="2088" y="-99.8" font-family="Times,serif" font-size="14.00" fill="#000000">AppComponent</text>
</g>
<!-- AppModule -->
<g id="node4" class="node">
<title>AppModule</title>
<polygon fill="#8dd3c7" stroke="#000000" points="1024.6571,-187 1021.6571,-191 1000.6571,-191 997.6571,-187 941.3429,-187 941.3429,-151 1024.6571,-151 1024.6571,-187"/>
<text text-anchor="middle" x="983" y="-164.8" font-family="Times,serif" font-size="14.00" fill="#000000">AppModule</text>
</g>
<!-- AppComponent&#45;&gt;AppModule -->
<g id="edge1" class="edge">
<title>AppComponent&#45;&gt;AppModule</title>
<path fill="none" stroke="#000000" d="M2088,-122.0908C2088,-145.1328 2088,-182 2088,-182 2088,-182 1034.968,-182 1034.968,-182"/>
<polygon fill="#000000" stroke="#000000" points="1034.968,-178.5001 1024.968,-182 1034.968,-185.5001 1034.968,-178.5001"/>
</g>
<!-- SuccessMessageToastComponent -->
<g id="node2" class="node">
<title>SuccessMessageToastComponent</title>
<polygon fill="#ffffb3" stroke="#000000" points="2016.7282,-122 1811.2718,-122 1811.2718,-86 2016.7282,-86 2016.7282,-122"/>
<text text-anchor="middle" x="1914" y="-99.8" font-family="Times,serif" font-size="14.00" fill="#000000">SuccessMessageToastComponent</text>
</g>
<!-- SuccessMessageToastComponent&#45;&gt;AppModule -->
<g id="edge2" class="edge">
<title>SuccessMessageToastComponent&#45;&gt;AppModule</title>
<path fill="none" stroke="#000000" d="M1914,-122.0449C1914,-143.6623 1914,-177 1914,-177 1914,-177 1034.8118,-177 1034.8118,-177"/>
<polygon fill="#000000" stroke="#000000" points="1034.8118,-173.5001 1024.8118,-177 1034.8118,-180.5001 1034.8118,-173.5001"/>
</g>
<!-- DialogDeleteAnnouncementComponent -->
<g id="node3" class="node">
<title>DialogDeleteAnnouncementComponent</title>
<polygon fill="#ffffb3" stroke="#000000" points="1792.9985,-122 1551.0015,-122 1551.0015,-86 1792.9985,-86 1792.9985,-122"/>
<text text-anchor="middle" x="1672" y="-99.8" font-family="Times,serif" font-size="14.00" fill="#000000">DialogDeleteAnnouncementComponent</text>
</g>
<!-- DialogDeleteAnnouncementComponent&#45;&gt;AppModule -->
<g id="edge3" class="edge">
<title>DialogDeleteAnnouncementComponent&#45;&gt;AppModule</title>
<path fill="none" stroke="#000000" d="M1672,-122.2228C1672,-142.3652 1672,-172 1672,-172 1672,-172 1034.8053,-172 1034.8053,-172"/>
<polygon fill="#000000" stroke="#000000" points="1034.8053,-168.5001 1024.8053,-172 1034.8053,-175.5001 1034.8053,-168.5001"/>
</g>
<!-- AppComponent  -->
<g id="node12" class="node">
<title>AppComponent </title>
<polygon fill="#80b1d3" stroke="#000000" points="1037.439,-252 928.561,-252 928.561,-216 1037.439,-216 1037.439,-252"/>
<text text-anchor="middle" x="983" y="-229.8" font-family="Times,serif" font-size="14.00" fill="#000000">AppComponent </text>
</g>
<!-- AppModule&#45;&gt;AppComponent  -->
<g id="edge12" class="edge">
<title>AppModule&#45;&gt;AppComponent </title>
<path fill="none" stroke="#000000" stroke-dasharray="1,5" d="M983,-187.1061C983,-187.1061 983,-205.991 983,-205.991"/>
<polygon fill="#000000" stroke="#000000" points="979.5001,-205.9909 983,-215.991 986.5001,-205.991 979.5001,-205.9909"/>
</g>
<!-- BrowserModule -->
<g id="node5" class="node">
<title>BrowserModule</title>
<polygon fill="#8dd3c7" stroke="#000000" points="1527.4734,-122 1524.4734,-126 1503.4734,-126 1500.4734,-122 1420.5266,-122 1420.5266,-86 1527.4734,-86 1527.4734,-122"/>
<text text-anchor="middle" x="1474" y="-99.8" font-family="Times,serif" font-size="14.00" fill="#000000">BrowserModule</text>
</g>
<!-- BrowserModule&#45;&gt;AppModule -->
<g id="edge4" class="edge">
<title>BrowserModule&#45;&gt;AppModule</title>
<path fill="none" stroke="#000000" d="M1474,-122.2222C1474,-140.8285 1474,-167 1474,-167 1474,-167 1034.8624,-167 1034.8624,-167"/>
<polygon fill="#000000" stroke="#000000" points="1034.8624,-163.5001 1024.8624,-167 1034.8623,-170.5001 1034.8624,-163.5001"/>
</g>
<!-- BrowserAnimationsModule -->
<g id="node6" class="node">
<title>BrowserAnimationsModule</title>
<polygon fill="#8dd3c7" stroke="#000000" points="1402.3019,-122 1399.3019,-126 1378.3019,-126 1375.3019,-122 1229.6981,-122 1229.6981,-86 1402.3019,-86 1402.3019,-122"/>
<text text-anchor="middle" x="1316" y="-99.8" font-family="Times,serif" font-size="14.00" fill="#000000">BrowserAnimationsModule</text>
</g>
<!-- BrowserAnimationsModule&#45;&gt;AppModule -->
<g id="edge5" class="edge">
<title>BrowserAnimationsModule&#45;&gt;AppModule</title>
<path fill="none" stroke="#000000" d="M1316,-122.0336C1316,-139.0597 1316,-162 1316,-162 1316,-162 1034.8375,-162 1034.8375,-162"/>
<polygon fill="#000000" stroke="#000000" points="1034.8375,-158.5001 1024.8375,-162 1034.8375,-165.5001 1034.8375,-158.5001"/>
</g>
<!-- AppRoutingModule -->
<g id="node7" class="node">
<title>AppRoutingModule</title>
<polygon fill="#8dd3c7" stroke="#000000" points="1211.2744,-122 1208.2744,-126 1187.2744,-126 1184.2744,-122 1082.7256,-122 1082.7256,-86 1211.2744,-86 1211.2744,-122"/>
<text text-anchor="middle" x="1147" y="-99.8" font-family="Times,serif" font-size="14.00" fill="#000000">AppRoutingModule</text>
</g>
<!-- AppRoutingModule&#45;&gt;AppModule -->
<g id="edge6" class="edge">
<title>AppRoutingModule&#45;&gt;AppModule</title>
<path fill="none" stroke="#000000" d="M1147,-122.2396C1147,-137.5706 1147,-157 1147,-157 1147,-157 1034.8085,-157 1034.8085,-157"/>
<polygon fill="#000000" stroke="#000000" points="1034.8085,-153.5001 1024.8085,-157 1034.8084,-160.5001 1034.8085,-153.5001"/>
</g>
<!-- HttpClientModule -->
<g id="node8" class="node">
<title>HttpClientModule</title>
<ellipse fill="#8dd3c7" stroke="#000000" cx="983" cy="-104" rx="81.7001" ry="18"/>
<text text-anchor="middle" x="983" y="-99.8" font-family="Times,serif" font-size="14.00" fill="#000000">HttpClientModule</text>
</g>
<!-- HttpClientModule&#45;&gt;AppModule -->
<g id="edge7" class="edge">
<title>HttpClientModule&#45;&gt;AppModule</title>
<path fill="none" stroke="#000000" d="M1003.9141,-121.4188C1003.9141,-121.4188 1003.9141,-140.6234 1003.9141,-140.6234"/>
<polygon fill="#000000" stroke="#000000" points="1000.4142,-140.6234 1003.9141,-150.6234 1007.4142,-140.6234 1000.4142,-140.6234"/>
</g>
<!-- HttpClientModule&#45;&gt;AppModule -->
<g id="edge9" class="edge">
<title>HttpClientModule&#45;&gt;AppModule</title>
<path fill="none" stroke="#000000" d="M962.0859,-121.4188C962.0859,-121.4188 962.0859,-140.6234 962.0859,-140.6234"/>
<polygon fill="#000000" stroke="#000000" points="958.586,-140.6234 962.0859,-150.6234 965.586,-140.6234 958.586,-140.6234"/>
</g>
<!-- HttpClientModule&#45;&gt;AppModule -->
<g id="edge13" class="edge">
<title>HttpClientModule&#45;&gt;AppModule</title>
<path fill="none" stroke="#000000" d="M983,-122.1061C983,-122.1061 983,-140.991 983,-140.991"/>
<polygon fill="#000000" stroke="#000000" points="979.5001,-140.9909 983,-150.991 986.5001,-140.991 979.5001,-140.9909"/>
</g>
<!-- CoreModule.forRoot() -->
<g id="node9" class="node">
<title>CoreModule.forRoot()</title>
<polygon fill="#8dd3c7" stroke="#000000" points="883.6313,-122 880.6313,-126 859.6313,-126 856.6313,-122 740.3687,-122 740.3687,-86 883.6313,-86 883.6313,-122"/>
<text text-anchor="middle" x="812" y="-99.8" font-family="Times,serif" font-size="14.00" fill="#000000">CoreModule.forRoot()</text>
</g>
<!-- CoreModule.forRoot()&#45;&gt;AppModule -->
<g id="edge8" class="edge">
<title>CoreModule.forRoot()&#45;&gt;AppModule</title>
<path fill="none" stroke="#000000" d="M812,-122.2396C812,-137.5706 812,-157 812,-157 812,-157 931.1687,-157 931.1687,-157"/>
<polygon fill="#000000" stroke="#000000" points="931.1687,-160.5001 941.1687,-157 931.1687,-153.5001 931.1687,-160.5001"/>
</g>
<!-- MatButtonModule -->
<g id="node10" class="node">
<title>MatButtonModule</title>
<polygon fill="#8dd3c7" stroke="#000000" points="722.2176,-122 719.2176,-126 698.2176,-126 695.2176,-122 601.7824,-122 601.7824,-86 722.2176,-86 722.2176,-122"/>
<text text-anchor="middle" x="662" y="-99.8" font-family="Times,serif" font-size="14.00" fill="#000000">MatButtonModule</text>
</g>
<!-- MatButtonModule&#45;&gt;AppModule -->
<g id="edge10" class="edge">
<title>MatButtonModule&#45;&gt;AppModule</title>
<path fill="none" stroke="#000000" d="M662,-122.0225C662,-139.3734 662,-163 662,-163 662,-163 931.0349,-163 931.0349,-163"/>
<polygon fill="#000000" stroke="#000000" points="931.0349,-166.5001 941.0349,-163 931.0348,-159.5001 931.0349,-166.5001"/>
</g>
<!-- MaterialDesignModule -->
<g id="node11" class="node">
<title>MaterialDesignModule</title>
<polygon fill="#8dd3c7" stroke="#000000" points="584.1275,-122 581.1275,-126 560.1275,-126 557.1275,-122 437.8725,-122 437.8725,-86 584.1275,-86 584.1275,-122"/>
<text text-anchor="middle" x="511" y="-99.8" font-family="Times,serif" font-size="14.00" fill="#000000">MaterialDesignModule</text>
</g>
<!-- MaterialDesignModule&#45;&gt;AppModule -->
<g id="edge11" class="edge">
<title>MaterialDesignModule&#45;&gt;AppModule</title>
<path fill="none" stroke="#000000" d="M511,-122.1061C511,-141.3391 511,-169 511,-169 511,-169 931.1131,-169 931.1131,-169"/>
<polygon fill="#000000" stroke="#000000" points="931.1132,-172.5001 941.1131,-169 931.1131,-165.5001 931.1132,-172.5001"/>
</g>
<!-- HttpClient -->
<g id="node13" class="node">
<title>HttpClient</title>
<ellipse fill="#fdb462" stroke="#000000" cx="362" cy="-104" rx="51.6208" ry="18"/>
<text text-anchor="middle" x="362" y="-99.8" font-family="Times,serif" font-size="14.00" fill="#000000">HttpClient</text>
</g>
<!-- HttpClient&#45;&gt;AppModule -->
<g id="edge14" class="edge">
<title>HttpClient&#45;&gt;AppModule</title>
<path fill="none" stroke="#000000" d="M362,-122.2843C362,-143.3211 362,-175 362,-175 362,-175 931.2902,-175 931.2902,-175"/>
<polygon fill="#000000" stroke="#000000" points="931.2902,-178.5001 941.2902,-175 931.2901,-171.5001 931.2902,-178.5001"/>
</g>
<!-- ListAnnouncementsComponent -->
<g id="node14" class="node">
<title>ListAnnouncementsComponent</title>
<ellipse fill="#fdb462" stroke="#000000" cx="158" cy="-104" rx="133.7555" ry="18"/>
<text text-anchor="middle" x="158" y="-99.8" font-family="Times,serif" font-size="14.00" fill="#000000">ListAnnouncementsComponent</text>
</g>
<!-- ListAnnouncementsComponent&#45;&gt;AppModule -->
<g id="edge15" class="edge">
<title>ListAnnouncementsComponent&#45;&gt;AppModule</title>
<path fill="none" stroke="#000000" d="M158,-122.2479C158,-145.0179 158,-181 158,-181 158,-181 931.2388,-181 931.2388,-181"/>
<polygon fill="#000000" stroke="#000000" points="931.2388,-184.5001 941.2388,-181 931.2387,-177.5001 931.2388,-184.5001"/>
</g>
</g>
</svg>
