<?xml version="1.0" encoding="UTF-8" standalone="no"?>
<!DOCTYPE svg PUBLIC "-//W3C//DTD SVG 1.1//EN"
 "http://www.w3.org/Graphics/SVG/1.1/DTD/svg11.dtd">
<!-- Generated by graphviz version 2.40.1 (20161225.0304)
 -->
<!-- Title: dependencies Pages: 1 -->
<svg width="1279pt" height="284pt"
 viewBox="0.00 0.00 1279.00 284.00" xmlns="http://www.w3.org/2000/svg" xmlns:xlink="http://www.w3.org/1999/xlink">
<g id="graph0" class="graph" transform="scale(1 1) rotate(0) translate(4 280)">
<title>dependencies</title>
<polygon fill="#ffffff" stroke="transparent" points="-4,4 -4,-280 1275,-280 1275,4 -4,4"/>
<text text-anchor="start" x="614.5091" y="-42.4" font-family="sans-serif" font-weight="bold" font-size="14.00" fill="#000000">Legend</text>
<polygon fill="#ffffb3" stroke="transparent" points="401.5,-10 401.5,-30 421.5,-30 421.5,-10 401.5,-10"/>
<text text-anchor="start" x="425.129" y="-15.4" font-family="sans-serif" font-size="14.00" fill="#000000"> &#160;Declarations</text>
<polygon fill="#8dd3c7" stroke="transparent" points="514.5,-10 514.5,-30 534.5,-30 534.5,-10 514.5,-10"/>
<text text-anchor="start" x="538.2251" y="-15.4" font-family="sans-serif" font-size="14.00" fill="#000000"> &#160;Module</text>
<polygon fill="#80b1d3" stroke="transparent" points="600.5,-10 600.5,-30 620.5,-30 620.5,-10 600.5,-10"/>
<text text-anchor="start" x="624.2812" y="-15.4" font-family="sans-serif" font-size="14.00" fill="#000000"> &#160;Bootstrap</text>
<polygon fill="#fdb462" stroke="transparent" points="697.5,-10 697.5,-30 717.5,-30 717.5,-10 697.5,-10"/>
<text text-anchor="start" x="721.1732" y="-15.4" font-family="sans-serif" font-size="14.00" fill="#000000"> &#160;Providers</text>
<polygon fill="#fb8072" stroke="transparent" points="793.5,-10 793.5,-30 813.5,-30 813.5,-10 793.5,-10"/>
<text text-anchor="start" x="817.2258" y="-15.4" font-family="sans-serif" font-size="14.00" fill="#000000"> &#160;Exports</text>
<g id="clust1" class="cluster">
<title>cluster_CreateCurriculumModule</title>
<polygon fill="none" stroke="#000000" stroke-dasharray="1,5" points="8,-70 8,-268 1263,-268 1263,-70 8,-70"/>
</g>
<g id="clust2" class="cluster">
<title>cluster_CreateCurriculumModule_declarations</title>
<polygon fill="none" stroke="#000000" points="1057,-78 1057,-130 1255,-130 1255,-78 1057,-78"/>
</g>
<g id="clust4" class="cluster">
<title>cluster_CreateCurriculumModule_imports</title>
<polygon fill="none" stroke="#000000" points="16,-78 16,-130 1049,-130 1049,-78 16,-78"/>
</g>
<g id="clust6" class="cluster">
<title>cluster_CreateCurriculumModule_bootstrap</title>
<polygon fill="none" stroke="#000000" points="533,-208 533,-260 735,-260 735,-208 533,-208"/>
</g>
<!-- CreateCurriculumComponent -->
<g id="node1" class="node">
<title>CreateCurriculumComponent</title>
<polygon fill="#ffffb3" stroke="#000000" points="1247.4087,-122 1064.5913,-122 1064.5913,-86 1247.4087,-86 1247.4087,-122"/>
<text text-anchor="middle" x="1156" y="-99.8" font-family="Times,serif" font-size="14.00" fill="#000000">CreateCurriculumComponent</text>
</g>
<!-- CreateCurriculumModule -->
<g id="node2" class="node">
<title>CreateCurriculumModule</title>
<polygon fill="#8dd3c7" stroke="#000000" points="714.126,-187 711.126,-191 690.126,-191 687.126,-187 553.874,-187 553.874,-151 714.126,-151 714.126,-187"/>
<text text-anchor="middle" x="634" y="-164.8" font-family="Times,serif" font-size="14.00" fill="#000000">CreateCurriculumModule</text>
</g>
<!-- CreateCurriculumComponent&#45;&gt;CreateCurriculumModule -->
<g id="edge1" class="edge">
<title>CreateCurriculumComponent&#45;&gt;CreateCurriculumModule</title>
<path fill="none" stroke="#000000" d="M1156,-122.2921C1156,-144.2057 1156,-178 1156,-178 1156,-178 724.1335,-178 724.1335,-178"/>
<polygon fill="#000000" stroke="#000000" points="724.1335,-174.5001 714.1335,-178 724.1334,-181.5001 724.1335,-174.5001"/>
</g>
<!-- CreateCurriculumComponent  -->
<g id="node10" class="node">
<title>CreateCurriculumComponent </title>
<polygon fill="#80b1d3" stroke="#000000" points="726.9082,-252 541.0918,-252 541.0918,-216 726.9082,-216 726.9082,-252"/>
<text text-anchor="middle" x="634" y="-229.8" font-family="Times,serif" font-size="14.00" fill="#000000">CreateCurriculumComponent </text>
</g>
<!-- CreateCurriculumModule&#45;&gt;CreateCurriculumComponent  -->
<g id="edge9" class="edge">
<title>CreateCurriculumModule&#45;&gt;CreateCurriculumComponent </title>
<path fill="none" stroke="#000000" stroke-dasharray="1,5" d="M634,-187.1061C634,-187.1061 634,-205.991 634,-205.991"/>
<polygon fill="#000000" stroke="#000000" points="630.5001,-205.9909 634,-215.991 637.5001,-205.991 630.5001,-205.9909"/>
</g>
<!-- HttpClientModule -->
<g id="node3" class="node">
<title>HttpClientModule</title>
<polygon fill="#8dd3c7" stroke="#000000" points="1041.1611,-122 1038.1611,-126 1017.1611,-126 1014.1611,-122 922.8389,-122 922.8389,-86 1041.1611,-86 1041.1611,-122"/>
<text text-anchor="middle" x="982" y="-99.8" font-family="Times,serif" font-size="14.00" fill="#000000">HttpClientModule</text>
</g>
<!-- HttpClientModule&#45;&gt;CreateCurriculumModule -->
<g id="edge2" class="edge">
<title>HttpClientModule&#45;&gt;CreateCurriculumModule</title>
<path fill="none" stroke="#000000" d="M982,-122.1061C982,-141.3391 982,-169 982,-169 982,-169 724.2752,-169 724.2752,-169"/>
<polygon fill="#000000" stroke="#000000" points="724.2752,-165.5001 714.2752,-169 724.2751,-172.5001 724.2752,-165.5001"/>
</g>
<!-- CommonModule -->
<g id="node4" class="node">
<title>CommonModule</title>
<polygon fill="#8dd3c7" stroke="#000000" points="904.6681,-122 901.6681,-126 880.6681,-126 877.6681,-122 793.3319,-122 793.3319,-86 904.6681,-86 904.6681,-122"/>
<text text-anchor="middle" x="849" y="-99.8" font-family="Times,serif" font-size="14.00" fill="#000000">CommonModule</text>
</g>
<!-- CommonModule&#45;&gt;CreateCurriculumModule -->
<g id="edge3" class="edge">
<title>CommonModule&#45;&gt;CreateCurriculumModule</title>
<path fill="none" stroke="#000000" d="M849,-122.027C849,-138.3976 849,-160 849,-160 849,-160 724.3638,-160 724.3638,-160"/>
<polygon fill="#000000" stroke="#000000" points="724.3638,-156.5001 714.3638,-160 724.3638,-163.5001 724.3638,-156.5001"/>
</g>
<!-- ReactiveFormsModule -->
<g id="node5" class="node">
<title>ReactiveFormsModule</title>
<polygon fill="#8dd3c7" stroke="#000000" points="775.3047,-122 772.3047,-126 751.3047,-126 748.3047,-122 630.6953,-122 630.6953,-86 775.3047,-86 775.3047,-122"/>
<text text-anchor="middle" x="703" y="-99.8" font-family="Times,serif" font-size="14.00" fill="#000000">ReactiveFormsModule</text>
</g>
<!-- ReactiveFormsModule&#45;&gt;CreateCurriculumModule -->
<g id="edge4" class="edge">
<title>ReactiveFormsModule&#45;&gt;CreateCurriculumModule</title>
<path fill="none" stroke="#000000" d="M672.5803,-122.1061C672.5803,-122.1061 672.5803,-140.991 672.5803,-140.991"/>
<polygon fill="#000000" stroke="#000000" points="669.0804,-140.9909 672.5803,-150.991 676.0804,-140.991 669.0804,-140.9909"/>
</g>
<!-- FormsModule -->
<g id="node6" class="node">
<title>FormsModule</title>
<polygon fill="#8dd3c7" stroke="#000000" points="612.8288,-122 609.8288,-126 588.8288,-126 585.8288,-122 517.1712,-122 517.1712,-86 612.8288,-86 612.8288,-122"/>
<text text-anchor="middle" x="565" y="-99.8" font-family="Times,serif" font-size="14.00" fill="#000000">FormsModule</text>
</g>
<!-- FormsModule&#45;&gt;CreateCurriculumModule -->
<g id="edge5" class="edge">
<title>FormsModule&#45;&gt;CreateCurriculumModule</title>
<path fill="none" stroke="#000000" d="M583.1757,-122.1061C583.1757,-122.1061 583.1757,-140.991 583.1757,-140.991"/>
<polygon fill="#000000" stroke="#000000" points="579.6757,-140.9909 583.1757,-150.991 586.6757,-140.991 579.6757,-140.9909"/>
</g>
<!-- CreateCurriculumRoutingModule -->
<g id="node7" class="node">
<title>CreateCurriculumRoutingModule</title>
<polygon fill="#8dd3c7" stroke="#000000" points="498.7436,-122 495.7436,-126 474.7436,-126 471.7436,-122 293.2564,-122 293.2564,-86 498.7436,-86 498.7436,-122"/>
<text text-anchor="middle" x="396" y="-99.8" font-family="Times,serif" font-size="14.00" fill="#000000">CreateCurriculumRoutingModule</text>
</g>
<!-- CreateCurriculumRoutingModule&#45;&gt;CreateCurriculumModule -->
<g id="edge6" class="edge">
<title>CreateCurriculumRoutingModule&#45;&gt;CreateCurriculumModule</title>
<path fill="none" stroke="#000000" d="M396,-122.027C396,-138.3976 396,-160 396,-160 396,-160 543.7559,-160 543.7559,-160"/>
<polygon fill="#000000" stroke="#000000" points="543.7559,-163.5001 553.7559,-160 543.7558,-156.5001 543.7559,-163.5001"/>
</g>
<!-- CoreModule -->
<g id="node8" class="node">
<title>CoreModule</title>
<polygon fill="#8dd3c7" stroke="#000000" points="275.2619,-122 272.2619,-126 251.2619,-126 248.2619,-122 188.7381,-122 188.7381,-86 275.2619,-86 275.2619,-122"/>
<text text-anchor="middle" x="232" y="-99.8" font-family="Times,serif" font-size="14.00" fill="#000000">CoreModule</text>
</g>
<!-- CoreModule&#45;&gt;CreateCurriculumModule -->
<g id="edge7" class="edge">
<title>CoreModule&#45;&gt;CreateCurriculumModule</title>
<path fill="none" stroke="#000000" d="M232,-122.1061C232,-141.3391 232,-169 232,-169 232,-169 543.6155,-169 543.6155,-169"/>
<polygon fill="#000000" stroke="#000000" points="543.6155,-172.5001 553.6155,-169 543.6154,-165.5001 543.6155,-172.5001"/>
</g>
<!-- MaterialDesignModule -->
<g id="node9" class="node">
<title>MaterialDesignModule</title>
<polygon fill="#8dd3c7" stroke="#000000" points="170.1275,-122 167.1275,-126 146.1275,-126 143.1275,-122 23.8725,-122 23.8725,-86 170.1275,-86 170.1275,-122"/>
<text text-anchor="middle" x="97" y="-99.8" font-family="Times,serif" font-size="14.00" fill="#000000">MaterialDesignModule</text>
</g>
<!-- MaterialDesignModule&#45;&gt;CreateCurriculumModule -->
<g id="edge8" class="edge">
<title>MaterialDesignModule&#45;&gt;CreateCurriculumModule</title>
<path fill="none" stroke="#000000" d="M97,-122.2921C97,-144.2057 97,-178 97,-178 97,-178 543.6057,-178 543.6057,-178"/>
<polygon fill="#000000" stroke="#000000" points="543.6057,-181.5001 553.6057,-178 543.6056,-174.5001 543.6057,-181.5001"/>
</g>
</g>
</svg>
