<?xml version="1.0" encoding="UTF-8" standalone="no"?>
<!DOCTYPE svg PUBLIC "-//W3C//DTD SVG 1.1//EN"
 "http://www.w3.org/Graphics/SVG/1.1/DTD/svg11.dtd">
<!-- Generated by graphviz version 2.40.1 (20161225.0304)
 -->
<!-- Title: dependencies Pages: 1 -->
<svg width="608pt" height="284pt"
 viewBox="0.00 0.00 608.00 284.00" xmlns="http://www.w3.org/2000/svg" xmlns:xlink="http://www.w3.org/1999/xlink">
<g id="graph0" class="graph" transform="scale(1 1) rotate(0) translate(4 280)">
<title>dependencies</title>
<polygon fill="#ffffff" stroke="transparent" points="-4,4 -4,-280 604,-280 604,4 -4,4"/>
<text text-anchor="start" x="279.0091" y="-42.4" font-family="sans-serif" font-weight="bold" font-size="14.00" fill="#000000">Legend</text>
<polygon fill="#ffffb3" stroke="transparent" points="66,-10 66,-30 86,-30 86,-10 66,-10"/>
<text text-anchor="start" x="89.629" y="-15.4" font-family="sans-serif" font-size="14.00" fill="#000000"> &#160;Declarations</text>
<polygon fill="#8dd3c7" stroke="transparent" points="179,-10 179,-30 199,-30 199,-10 179,-10"/>
<text text-anchor="start" x="202.7251" y="-15.4" font-family="sans-serif" font-size="14.00" fill="#000000"> &#160;Module</text>
<polygon fill="#80b1d3" stroke="transparent" points="265,-10 265,-30 285,-30 285,-10 265,-10"/>
<text text-anchor="start" x="288.7812" y="-15.4" font-family="sans-serif" font-size="14.00" fill="#000000"> &#160;Bootstrap</text>
<polygon fill="#fdb462" stroke="transparent" points="362,-10 362,-30 382,-30 382,-10 362,-10"/>
<text text-anchor="start" x="385.6732" y="-15.4" font-family="sans-serif" font-size="14.00" fill="#000000"> &#160;Providers</text>
<polygon fill="#fb8072" stroke="transparent" points="458,-10 458,-30 478,-30 478,-10 458,-10"/>
<text text-anchor="start" x="481.7258" y="-15.4" font-family="sans-serif" font-size="14.00" fill="#000000"> &#160;Exports</text>
<g id="clust1" class="cluster">
<title>cluster_CreateAccountsModule</title>
<polygon fill="none" stroke="#000000" stroke-dasharray="1,5" points="8,-70 8,-268 592,-268 592,-70 8,-70"/>
</g>
<g id="clust2" class="cluster">
<title>cluster_CreateAccountsModule_declarations</title>
<polygon fill="none" stroke="#000000" points="398,-78 398,-130 584,-130 584,-78 398,-78"/>
</g>
<g id="clust4" class="cluster">
<title>cluster_CreateAccountsModule_imports</title>
<polygon fill="none" stroke="#000000" points="16,-78 16,-130 390,-130 390,-78 16,-78"/>
</g>
<g id="clust6" class="cluster">
<title>cluster_CreateAccountsModule_bootstrap</title>
<polygon fill="none" stroke="#000000" points="190,-208 190,-260 380,-260 380,-208 190,-208"/>
</g>
<!-- CreateAccountsComponent -->
<g id="node1" class="node">
<title>CreateAccountsComponent</title>
<polygon fill="#ffffb3" stroke="#000000" points="576.2352,-122 405.7648,-122 405.7648,-86 576.2352,-86 576.2352,-122"/>
<text text-anchor="middle" x="491" y="-99.8" font-family="Times,serif" font-size="14.00" fill="#000000">CreateAccountsComponent</text>
</g>
<!-- CreateAccountsModule -->
<g id="node2" class="node">
<title>CreateAccountsModule</title>
<polygon fill="#8dd3c7" stroke="#000000" points="359.4524,-187 356.4524,-191 335.4524,-191 332.4524,-187 210.5476,-187 210.5476,-151 359.4524,-151 359.4524,-187"/>
<text text-anchor="middle" x="285" y="-164.8" font-family="Times,serif" font-size="14.00" fill="#000000">CreateAccountsModule</text>
</g>
<!-- CreateAccountsComponent&#45;&gt;CreateAccountsModule -->
<g id="edge1" class="edge">
<title>CreateAccountsComponent&#45;&gt;CreateAccountsModule</title>
<path fill="none" stroke="#000000" d="M491,-122.1061C491,-141.3391 491,-169 491,-169 491,-169 369.662,-169 369.662,-169"/>
<polygon fill="#000000" stroke="#000000" points="369.662,-165.5001 359.662,-169 369.662,-172.5001 369.662,-165.5001"/>
</g>
<!-- CreateAccountsComponent  -->
<g id="node5" class="node">
<title>CreateAccountsComponent </title>
<polygon fill="#80b1d3" stroke="#000000" points="372.2352,-252 197.7648,-252 197.7648,-216 372.2352,-216 372.2352,-252"/>
<text text-anchor="middle" x="285" y="-229.8" font-family="Times,serif" font-size="14.00" fill="#000000">CreateAccountsComponent </text>
</g>
<!-- CreateAccountsModule&#45;&gt;CreateAccountsComponent  -->
<g id="edge4" class="edge">
<title>CreateAccountsModule&#45;&gt;CreateAccountsComponent </title>
<path fill="none" stroke="#000000" stroke-dasharray="1,5" d="M285,-187.1061C285,-187.1061 285,-205.991 285,-205.991"/>
<polygon fill="#000000" stroke="#000000" points="281.5001,-205.9909 285,-215.991 288.5001,-205.991 281.5001,-205.9909"/>
</g>
<!-- CreateAccountsRoutingModule -->
<g id="node3" class="node">
<title>CreateAccountsRoutingModule</title>
<polygon fill="#8dd3c7" stroke="#000000" points="382.0702,-122 379.0702,-126 358.0702,-126 355.0702,-122 187.9298,-122 187.9298,-86 382.0702,-86 382.0702,-122"/>
<text text-anchor="middle" x="285" y="-99.8" font-family="Times,serif" font-size="14.00" fill="#000000">CreateAccountsRoutingModule</text>
</g>
<!-- CreateAccountsRoutingModule&#45;&gt;CreateAccountsModule -->
<g id="edge2" class="edge">
<title>CreateAccountsRoutingModule&#45;&gt;CreateAccountsModule</title>
<path fill="none" stroke="#000000" d="M285,-122.1061C285,-122.1061 285,-140.991 285,-140.991"/>
<polygon fill="#000000" stroke="#000000" points="281.5001,-140.9909 285,-150.991 288.5001,-140.991 281.5001,-140.9909"/>
</g>
<!-- MaterialDesignModule -->
<g id="node4" class="node">
<title>MaterialDesignModule</title>
<polygon fill="#8dd3c7" stroke="#000000" points="170.1275,-122 167.1275,-126 146.1275,-126 143.1275,-122 23.8725,-122 23.8725,-86 170.1275,-86 170.1275,-122"/>
<text text-anchor="middle" x="97" y="-99.8" font-family="Times,serif" font-size="14.00" fill="#000000">MaterialDesignModule</text>
</g>
<!-- MaterialDesignModule&#45;&gt;CreateAccountsModule -->
<g id="edge3" class="edge">
<title>MaterialDesignModule&#45;&gt;CreateAccountsModule</title>
<path fill="none" stroke="#000000" d="M97,-122.1061C97,-141.3391 97,-169 97,-169 97,-169 200.4274,-169 200.4274,-169"/>
<polygon fill="#000000" stroke="#000000" points="200.4274,-172.5001 210.4274,-169 200.4274,-165.5001 200.4274,-172.5001"/>
</g>
</g>
</svg>
