<?xml version="1.0" encoding="UTF-8" standalone="no"?>
<!DOCTYPE svg PUBLIC "-//W3C//DTD SVG 1.1//EN"
 "http://www.w3.org/Graphics/SVG/1.1/DTD/svg11.dtd">
<!-- Generated by graphviz version 2.40.1 (20161225.0304)
 -->
<!-- Title: dependencies Pages: 1 -->
<svg width="1147pt" height="211pt"
 viewBox="0.00 0.00 1147.00 211.00" xmlns="http://www.w3.org/2000/svg" xmlns:xlink="http://www.w3.org/1999/xlink">
<g id="graph0" class="graph" transform="scale(1 1) rotate(0) translate(4 207)">
<title>dependencies</title>
<polygon fill="#ffffff" stroke="transparent" points="-4,4 -4,-207 1143,-207 1143,4 -4,4"/>
<text text-anchor="start" x="548.5091" y="-42.4" font-family="sans-serif" font-weight="bold" font-size="14.00" fill="#000000">Legend</text>
<polygon fill="#ffffb3" stroke="transparent" points="335.5,-10 335.5,-30 355.5,-30 355.5,-10 335.5,-10"/>
<text text-anchor="start" x="359.129" y="-15.4" font-family="sans-serif" font-size="14.00" fill="#000000"> &#160;Declarations</text>
<polygon fill="#8dd3c7" stroke="transparent" points="448.5,-10 448.5,-30 468.5,-30 468.5,-10 448.5,-10"/>
<text text-anchor="start" x="472.2251" y="-15.4" font-family="sans-serif" font-size="14.00" fill="#000000"> &#160;Module</text>
<polygon fill="#80b1d3" stroke="transparent" points="534.5,-10 534.5,-30 554.5,-30 554.5,-10 534.5,-10"/>
<text text-anchor="start" x="558.2812" y="-15.4" font-family="sans-serif" font-size="14.00" fill="#000000"> &#160;Bootstrap</text>
<polygon fill="#fdb462" stroke="transparent" points="631.5,-10 631.5,-30 651.5,-30 651.5,-10 631.5,-10"/>
<text text-anchor="start" x="655.1732" y="-15.4" font-family="sans-serif" font-size="14.00" fill="#000000"> &#160;Providers</text>
<polygon fill="#fb8072" stroke="transparent" points="727.5,-10 727.5,-30 747.5,-30 747.5,-10 727.5,-10"/>
<text text-anchor="start" x="751.2258" y="-15.4" font-family="sans-serif" font-size="14.00" fill="#000000"> &#160;Exports</text>
<g id="clust1" class="cluster">
<title>cluster_EditAnnoucementModule</title>
<polygon fill="none" stroke="#000000" stroke-dasharray="1,5" points="8,-70 8,-195 1131,-195 1131,-70 8,-70"/>
</g>
<g id="clust2" class="cluster">
<title>cluster_EditAnnoucementModule_declarations</title>
<polygon fill="none" stroke="#000000" points="923,-78 923,-130 1123,-130 1123,-78 923,-78"/>
</g>
<g id="clust4" class="cluster">
<title>cluster_EditAnnoucementModule_imports</title>
<polygon fill="none" stroke="#000000" points="16,-78 16,-130 915,-130 915,-78 16,-78"/>
</g>
<!-- EditAnnouncmentComponent -->
<g id="node1" class="node">
<title>EditAnnouncmentComponent</title>
<polygon fill="#ffffb3" stroke="#000000" points="1114.9832,-122 931.0168,-122 931.0168,-86 1114.9832,-86 1114.9832,-122"/>
<text text-anchor="middle" x="1023" y="-99.8" font-family="Times,serif" font-size="14.00" fill="#000000">EditAnnouncmentComponent</text>
</g>
<!-- EditAnnoucementModule -->
<g id="node2" class="node">
<title>EditAnnoucementModule</title>
<polygon fill="#8dd3c7" stroke="#000000" points="655.9157,-187 652.9157,-191 631.9157,-191 628.9157,-187 494.0843,-187 494.0843,-151 655.9157,-151 655.9157,-187"/>
<text text-anchor="middle" x="575" y="-164.8" font-family="Times,serif" font-size="14.00" fill="#000000">EditAnnoucementModule</text>
</g>
<!-- EditAnnouncmentComponent&#45;&gt;EditAnnoucementModule -->
<g id="edge1" class="edge">
<title>EditAnnouncmentComponent&#45;&gt;EditAnnoucementModule</title>
<path fill="none" stroke="#000000" d="M1023,-122.2843C1023,-143.3211 1023,-175 1023,-175 1023,-175 665.87,-175 665.87,-175"/>
<polygon fill="#000000" stroke="#000000" points="665.87,-171.5001 655.87,-175 665.8699,-178.5001 665.87,-171.5001"/>
</g>
<!-- FormsModule -->
<g id="node3" class="node">
<title>FormsModule</title>
<polygon fill="#8dd3c7" stroke="#000000" points="906.8288,-122 903.8288,-126 882.8288,-126 879.8288,-122 811.1712,-122 811.1712,-86 906.8288,-86 906.8288,-122"/>
<text text-anchor="middle" x="859" y="-99.8" font-family="Times,serif" font-size="14.00" fill="#000000">FormsModule</text>
</g>
<!-- FormsModule&#45;&gt;EditAnnoucementModule -->
<g id="edge2" class="edge">
<title>FormsModule&#45;&gt;EditAnnoucementModule</title>
<path fill="none" stroke="#000000" d="M859,-122.0225C859,-139.3734 859,-163 859,-163 859,-163 666.0029,-163 666.0029,-163"/>
<polygon fill="#000000" stroke="#000000" points="666.003,-159.5001 656.0029,-163 666.0029,-166.5001 666.003,-159.5001"/>
</g>
<!-- ReactiveFormsModule -->
<g id="node4" class="node">
<title>ReactiveFormsModule</title>
<polygon fill="#8dd3c7" stroke="#000000" points="793.3047,-122 790.3047,-126 769.3047,-126 766.3047,-122 648.6953,-122 648.6953,-86 793.3047,-86 793.3047,-122"/>
<text text-anchor="middle" x="721" y="-99.8" font-family="Times,serif" font-size="14.00" fill="#000000">ReactiveFormsModule</text>
</g>
<!-- ReactiveFormsModule&#45;&gt;EditAnnoucementModule -->
<g id="edge3" class="edge">
<title>ReactiveFormsModule&#45;&gt;EditAnnoucementModule</title>
<path fill="none" stroke="#000000" d="M648.8363,-104C643.3194,-104 639.8408,-104 639.8408,-104 639.8408,-104 639.8408,-140.8939 639.8408,-140.8939"/>
<polygon fill="#000000" stroke="#000000" points="636.3409,-140.8938 639.8408,-150.8939 643.3409,-140.8939 636.3409,-140.8938"/>
</g>
<!-- CommonModule -->
<g id="node5" class="node">
<title>CommonModule</title>
<polygon fill="#8dd3c7" stroke="#000000" points="630.6681,-122 627.6681,-126 606.6681,-126 603.6681,-122 519.3319,-122 519.3319,-86 630.6681,-86 630.6681,-122"/>
<text text-anchor="middle" x="575" y="-99.8" font-family="Times,serif" font-size="14.00" fill="#000000">CommonModule</text>
</g>
<!-- CommonModule&#45;&gt;EditAnnoucementModule -->
<g id="edge4" class="edge">
<title>CommonModule&#45;&gt;EditAnnoucementModule</title>
<path fill="none" stroke="#000000" d="M575,-122.1061C575,-122.1061 575,-140.991 575,-140.991"/>
<polygon fill="#000000" stroke="#000000" points="571.5001,-140.9909 575,-150.991 578.5001,-140.991 571.5001,-140.9909"/>
</g>
<!-- CoreModule -->
<g id="node6" class="node">
<title>CoreModule</title>
<polygon fill="#8dd3c7" stroke="#000000" points="501.2619,-122 498.2619,-126 477.2619,-126 474.2619,-122 414.7381,-122 414.7381,-86 501.2619,-86 501.2619,-122"/>
<text text-anchor="middle" x="458" y="-99.8" font-family="Times,serif" font-size="14.00" fill="#000000">CoreModule</text>
</g>
<!-- CoreModule&#45;&gt;EditAnnoucementModule -->
<g id="edge5" class="edge">
<title>CoreModule&#45;&gt;EditAnnoucementModule</title>
<path fill="none" stroke="#000000" d="M497.8366,-122.1061C497.8366,-122.1061 497.8366,-140.991 497.8366,-140.991"/>
<polygon fill="#000000" stroke="#000000" points="494.3367,-140.9909 497.8366,-150.991 501.3367,-140.991 494.3367,-140.9909"/>
</g>
<!-- MaterialDesignModule -->
<g id="node7" class="node">
<title>MaterialDesignModule</title>
<polygon fill="#8dd3c7" stroke="#000000" points="396.1275,-122 393.1275,-126 372.1275,-126 369.1275,-122 249.8725,-122 249.8725,-86 396.1275,-86 396.1275,-122"/>
<text text-anchor="middle" x="323" y="-99.8" font-family="Times,serif" font-size="14.00" fill="#000000">MaterialDesignModule</text>
</g>
<!-- MaterialDesignModule&#45;&gt;EditAnnoucementModule -->
<g id="edge6" class="edge">
<title>MaterialDesignModule&#45;&gt;EditAnnoucementModule</title>
<path fill="none" stroke="#000000" d="M323,-122.0225C323,-139.3734 323,-163 323,-163 323,-163 484.2258,-163 484.2258,-163"/>
<polygon fill="#000000" stroke="#000000" points="484.2258,-166.5001 494.2258,-163 484.2258,-159.5001 484.2258,-166.5001"/>
</g>
<!-- EditAnnouncmentRoutingModule -->
<g id="node8" class="node">
<title>EditAnnouncmentRoutingModule</title>
<polygon fill="#8dd3c7" stroke="#000000" points="231.8186,-122 228.8186,-126 207.8186,-126 204.8186,-122 24.1814,-122 24.1814,-86 231.8186,-86 231.8186,-122"/>
<text text-anchor="middle" x="128" y="-99.8" font-family="Times,serif" font-size="14.00" fill="#000000">EditAnnouncmentRoutingModule</text>
</g>
<!-- EditAnnouncmentRoutingModule&#45;&gt;EditAnnoucementModule -->
<g id="edge7" class="edge">
<title>EditAnnouncmentRoutingModule&#45;&gt;EditAnnoucementModule</title>
<path fill="none" stroke="#000000" d="M128,-122.2843C128,-143.3211 128,-175 128,-175 128,-175 484.0517,-175 484.0517,-175"/>
<polygon fill="#000000" stroke="#000000" points="484.0517,-178.5001 494.0517,-175 484.0516,-171.5001 484.0517,-178.5001"/>
</g>
</g>
</svg>
