<?xml version="1.0" encoding="UTF-8" standalone="no"?>
<!DOCTYPE svg PUBLIC "-//W3C//DTD SVG 1.1//EN"
 "http://www.w3.org/Graphics/SVG/1.1/DTD/svg11.dtd">
<!-- Generated by graphviz version 2.40.1 (20161225.0304)
 -->
<!-- Title: dependencies Pages: 1 -->
<svg width="1321pt" height="284pt"
 viewBox="0.00 0.00 1321.00 284.00" xmlns="http://www.w3.org/2000/svg" xmlns:xlink="http://www.w3.org/1999/xlink">
<g id="graph0" class="graph" transform="scale(1 1) rotate(0) translate(4 280)">
<title>dependencies</title>
<polygon fill="#ffffff" stroke="transparent" points="-4,4 -4,-280 1317,-280 1317,4 -4,4"/>
<text text-anchor="start" x="635.5091" y="-42.4" font-family="sans-serif" font-weight="bold" font-size="14.00" fill="#000000">Legend</text>
<polygon fill="#ffffb3" stroke="transparent" points="422.5,-10 422.5,-30 442.5,-30 442.5,-10 422.5,-10"/>
<text text-anchor="start" x="446.129" y="-15.4" font-family="sans-serif" font-size="14.00" fill="#000000"> &#160;Declarations</text>
<polygon fill="#8dd3c7" stroke="transparent" points="535.5,-10 535.5,-30 555.5,-30 555.5,-10 535.5,-10"/>
<text text-anchor="start" x="559.2251" y="-15.4" font-family="sans-serif" font-size="14.00" fill="#000000"> &#160;Module</text>
<polygon fill="#80b1d3" stroke="transparent" points="621.5,-10 621.5,-30 641.5,-30 641.5,-10 621.5,-10"/>
<text text-anchor="start" x="645.2812" y="-15.4" font-family="sans-serif" font-size="14.00" fill="#000000"> &#160;Bootstrap</text>
<polygon fill="#fdb462" stroke="transparent" points="718.5,-10 718.5,-30 738.5,-30 738.5,-10 718.5,-10"/>
<text text-anchor="start" x="742.1732" y="-15.4" font-family="sans-serif" font-size="14.00" fill="#000000"> &#160;Providers</text>
<polygon fill="#fb8072" stroke="transparent" points="814.5,-10 814.5,-30 834.5,-30 834.5,-10 814.5,-10"/>
<text text-anchor="start" x="838.2258" y="-15.4" font-family="sans-serif" font-size="14.00" fill="#000000"> &#160;Exports</text>
<g id="clust1" class="cluster">
<title>cluster_SeeAccountsModule</title>
<polygon fill="none" stroke="#000000" stroke-dasharray="1,5" points="8,-70 8,-268 1305,-268 1305,-70 8,-70"/>
</g>
<g id="clust2" class="cluster">
<title>cluster_SeeAccountsModule_declarations</title>
<polygon fill="none" stroke="#000000" points="1127,-78 1127,-130 1297,-130 1297,-78 1127,-78"/>
</g>
<g id="clust4" class="cluster">
<title>cluster_SeeAccountsModule_imports</title>
<polygon fill="none" stroke="#000000" points="16,-78 16,-130 1119,-130 1119,-78 16,-78"/>
</g>
<g id="clust6" class="cluster">
<title>cluster_SeeAccountsModule_bootstrap</title>
<polygon fill="none" stroke="#000000" points="542,-208 542,-260 716,-260 716,-208 542,-208"/>
</g>
<!-- SeeAccountsComponent -->
<g id="node1" class="node">
<title>SeeAccountsComponent</title>
<polygon fill="#ffffb3" stroke="#000000" points="1289.4158,-122 1134.5842,-122 1134.5842,-86 1289.4158,-86 1289.4158,-122"/>
<text text-anchor="middle" x="1212" y="-99.8" font-family="Times,serif" font-size="14.00" fill="#000000">SeeAccountsComponent</text>
</g>
<!-- SeeAccountsModule -->
<g id="node2" class="node">
<title>SeeAccountsModule</title>
<polygon fill="#8dd3c7" stroke="#000000" points="695.1331,-187 692.1331,-191 671.1331,-191 668.1331,-187 562.8669,-187 562.8669,-151 695.1331,-151 695.1331,-187"/>
<text text-anchor="middle" x="629" y="-164.8" font-family="Times,serif" font-size="14.00" fill="#000000">SeeAccountsModule</text>
</g>
<!-- SeeAccountsComponent&#45;&gt;SeeAccountsModule -->
<g id="edge1" class="edge">
<title>SeeAccountsComponent&#45;&gt;SeeAccountsModule</title>
<path fill="none" stroke="#000000" d="M1212,-122.0109C1212,-144.4852 1212,-180 1212,-180 1212,-180 705.3099,-180 705.3099,-180"/>
<polygon fill="#000000" stroke="#000000" points="705.3099,-176.5001 695.3099,-180 705.3099,-183.5001 705.3099,-176.5001"/>
</g>
<!-- SeeAccountsComponent  -->
<g id="node11" class="node">
<title>SeeAccountsComponent </title>
<polygon fill="#80b1d3" stroke="#000000" points="707.9152,-252 550.0848,-252 550.0848,-216 707.9152,-216 707.9152,-252"/>
<text text-anchor="middle" x="629" y="-229.8" font-family="Times,serif" font-size="14.00" fill="#000000">SeeAccountsComponent </text>
</g>
<!-- SeeAccountsModule&#45;&gt;SeeAccountsComponent  -->
<g id="edge10" class="edge">
<title>SeeAccountsModule&#45;&gt;SeeAccountsComponent </title>
<path fill="none" stroke="#000000" stroke-dasharray="1,5" d="M629,-187.1061C629,-187.1061 629,-205.991 629,-205.991"/>
<polygon fill="#000000" stroke="#000000" points="625.5001,-205.9909 629,-215.991 632.5001,-205.991 625.5001,-205.9909"/>
</g>
<!-- CommonModule -->
<g id="node3" class="node">
<title>CommonModule</title>
<polygon fill="#8dd3c7" stroke="#000000" points="1110.6681,-122 1107.6681,-126 1086.6681,-126 1083.6681,-122 999.3319,-122 999.3319,-86 1110.6681,-86 1110.6681,-122"/>
<text text-anchor="middle" x="1055" y="-99.8" font-family="Times,serif" font-size="14.00" fill="#000000">CommonModule</text>
</g>
<!-- CommonModule&#45;&gt;SeeAccountsModule -->
<g id="edge2" class="edge">
<title>CommonModule&#45;&gt;SeeAccountsModule</title>
<path fill="none" stroke="#000000" d="M1055,-122.1289C1055,-142.5724 1055,-173 1055,-173 1055,-173 705.5625,-173 705.5625,-173"/>
<polygon fill="#000000" stroke="#000000" points="705.5625,-169.5001 695.5625,-173 705.5625,-176.5001 705.5625,-169.5001"/>
</g>
<!-- FormsModule -->
<g id="node4" class="node">
<title>FormsModule</title>
<polygon fill="#8dd3c7" stroke="#000000" points="981.8288,-122 978.8288,-126 957.8288,-126 954.8288,-122 886.1712,-122 886.1712,-86 981.8288,-86 981.8288,-122"/>
<text text-anchor="middle" x="934" y="-99.8" font-family="Times,serif" font-size="14.00" fill="#000000">FormsModule</text>
</g>
<!-- FormsModule&#45;&gt;SeeAccountsModule -->
<g id="edge3" class="edge">
<title>FormsModule&#45;&gt;SeeAccountsModule</title>
<path fill="none" stroke="#000000" d="M934,-122.2667C934,-140.5552 934,-166 934,-166 934,-166 705.1805,-166 705.1805,-166"/>
<polygon fill="#000000" stroke="#000000" points="705.1805,-162.5001 695.1805,-166 705.1804,-169.5001 705.1805,-162.5001"/>
</g>
<!-- SeeAccountsRoutingModule -->
<g id="node5" class="node">
<title>SeeAccountsRoutingModule</title>
<polygon fill="#8dd3c7" stroke="#000000" points="867.7506,-122 864.7506,-126 843.7506,-126 840.7506,-122 690.2494,-122 690.2494,-86 867.7506,-86 867.7506,-122"/>
<text text-anchor="middle" x="779" y="-99.8" font-family="Times,serif" font-size="14.00" fill="#000000">SeeAccountsRoutingModule</text>
</g>
<!-- SeeAccountsRoutingModule&#45;&gt;SeeAccountsModule -->
<g id="edge4" class="edge">
<title>SeeAccountsRoutingModule&#45;&gt;SeeAccountsModule</title>
<path fill="none" stroke="#000000" d="M701.637,-122.0091C701.637,-138.0494 701.637,-159 701.637,-159 701.637,-159 701.0177,-159 701.0177,-159"/>
<polygon fill="#000000" stroke="#000000" points="705.444,-155.5002 695.444,-159 705.4439,-162.5002 705.444,-155.5002"/>
</g>
<!-- CoreModule -->
<g id="node6" class="node">
<title>CoreModule</title>
<polygon fill="#8dd3c7" stroke="#000000" points="672.2619,-122 669.2619,-126 648.2619,-126 645.2619,-122 585.7381,-122 585.7381,-86 672.2619,-86 672.2619,-122"/>
<text text-anchor="middle" x="629" y="-99.8" font-family="Times,serif" font-size="14.00" fill="#000000">CoreModule</text>
</g>
<!-- CoreModule&#45;&gt;SeeAccountsModule -->
<g id="edge5" class="edge">
<title>CoreModule&#45;&gt;SeeAccountsModule</title>
<path fill="none" stroke="#000000" d="M629,-122.1061C629,-122.1061 629,-140.991 629,-140.991"/>
<polygon fill="#000000" stroke="#000000" points="625.5001,-140.9909 629,-150.991 632.5001,-140.991 625.5001,-140.9909"/>
</g>
<!-- MaterialDesignModule -->
<g id="node7" class="node">
<title>MaterialDesignModule</title>
<polygon fill="#8dd3c7" stroke="#000000" points="567.1275,-122 564.1275,-126 543.1275,-126 540.1275,-122 420.8725,-122 420.8725,-86 567.1275,-86 567.1275,-122"/>
<text text-anchor="middle" x="494" y="-99.8" font-family="Times,serif" font-size="14.00" fill="#000000">MaterialDesignModule</text>
</g>
<!-- MaterialDesignModule&#45;&gt;SeeAccountsModule -->
<g id="edge6" class="edge">
<title>MaterialDesignModule&#45;&gt;SeeAccountsModule</title>
<path fill="none" stroke="#000000" d="M556.3631,-122.0109C556.3631,-144.4852 556.3631,-180 556.3631,-180 556.3631,-180 556.9823,-180 556.9823,-180"/>
<polygon fill="#000000" stroke="#000000" points="552.5561,-183.5002 562.556,-180 552.556,-176.5002 552.5561,-183.5002"/>
</g>
<!-- MatDividerModule -->
<g id="node8" class="node">
<title>MatDividerModule</title>
<polygon fill="#8dd3c7" stroke="#000000" points="402.3627,-122 399.3627,-126 378.3627,-126 375.3627,-122 277.6373,-122 277.6373,-86 402.3627,-86 402.3627,-122"/>
<text text-anchor="middle" x="340" y="-99.8" font-family="Times,serif" font-size="14.00" fill="#000000">MatDividerModule</text>
</g>
<!-- MatDividerModule&#45;&gt;SeeAccountsModule -->
<g id="edge7" class="edge">
<title>MatDividerModule&#45;&gt;SeeAccountsModule</title>
<path fill="none" stroke="#000000" d="M340,-122.0091C340,-138.0494 340,-159 340,-159 340,-159 552.6976,-159 552.6976,-159"/>
<polygon fill="#000000" stroke="#000000" points="552.6976,-162.5001 562.6976,-159 552.6975,-155.5001 552.6976,-162.5001"/>
</g>
<!-- MatListModule -->
<g id="node9" class="node">
<title>MatListModule</title>
<polygon fill="#8dd3c7" stroke="#000000" points="259.8781,-122 256.8781,-126 235.8781,-126 232.8781,-122 156.1219,-122 156.1219,-86 259.8781,-86 259.8781,-122"/>
<text text-anchor="middle" x="208" y="-99.8" font-family="Times,serif" font-size="14.00" fill="#000000">MatListModule</text>
</g>
<!-- MatListModule&#45;&gt;SeeAccountsModule -->
<g id="edge8" class="edge">
<title>MatListModule&#45;&gt;SeeAccountsModule</title>
<path fill="none" stroke="#000000" d="M208,-122.2667C208,-140.5552 208,-166 208,-166 208,-166 552.7556,-166 552.7556,-166"/>
<polygon fill="#000000" stroke="#000000" points="552.7557,-169.5001 562.7556,-166 552.7556,-162.5001 552.7557,-169.5001"/>
</g>
<!-- MatTableModule -->
<g id="node10" class="node">
<title>MatTableModule</title>
<polygon fill="#8dd3c7" stroke="#000000" points="137.972,-122 134.972,-126 113.972,-126 110.972,-122 24.028,-122 24.028,-86 137.972,-86 137.972,-122"/>
<text text-anchor="middle" x="81" y="-99.8" font-family="Times,serif" font-size="14.00" fill="#000000">MatTableModule</text>
</g>
<!-- MatTableModule&#45;&gt;SeeAccountsModule -->
<g id="edge9" class="edge">
<title>MatTableModule&#45;&gt;SeeAccountsModule</title>
<path fill="none" stroke="#000000" d="M81,-122.1289C81,-142.5724 81,-173 81,-173 81,-173 552.6256,-173 552.6256,-173"/>
<polygon fill="#000000" stroke="#000000" points="552.6256,-176.5001 562.6256,-173 552.6255,-169.5001 552.6256,-176.5001"/>
</g>
</g>
</svg>
