<?xml version="1.0" encoding="UTF-8" standalone="no"?>
<!DOCTYPE svg PUBLIC "-//W3C//DTD SVG 1.1//EN"
 "http://www.w3.org/Graphics/SVG/1.1/DTD/svg11.dtd">
<!-- Generated by graphviz version 2.40.1 (20161225.0304)
 -->
<!-- Title: dependencies Pages: 1 -->
<svg width="983pt" height="284pt"
 viewBox="0.00 0.00 983.00 284.00" xmlns="http://www.w3.org/2000/svg" xmlns:xlink="http://www.w3.org/1999/xlink">
<g id="graph0" class="graph" transform="scale(1 1) rotate(0) translate(4 280)">
<title>dependencies</title>
<polygon fill="#ffffff" stroke="transparent" points="-4,4 -4,-280 979,-280 979,4 -4,4"/>
<text text-anchor="start" x="466.5091" y="-42.4" font-family="sans-serif" font-weight="bold" font-size="14.00" fill="#000000">Legend</text>
<polygon fill="#ffffb3" stroke="transparent" points="253.5,-10 253.5,-30 273.5,-30 273.5,-10 253.5,-10"/>
<text text-anchor="start" x="277.129" y="-15.4" font-family="sans-serif" font-size="14.00" fill="#000000"> &#160;Declarations</text>
<polygon fill="#8dd3c7" stroke="transparent" points="366.5,-10 366.5,-30 386.5,-30 386.5,-10 366.5,-10"/>
<text text-anchor="start" x="390.2251" y="-15.4" font-family="sans-serif" font-size="14.00" fill="#000000"> &#160;Module</text>
<polygon fill="#80b1d3" stroke="transparent" points="452.5,-10 452.5,-30 472.5,-30 472.5,-10 452.5,-10"/>
<text text-anchor="start" x="476.2812" y="-15.4" font-family="sans-serif" font-size="14.00" fill="#000000"> &#160;Bootstrap</text>
<polygon fill="#fdb462" stroke="transparent" points="549.5,-10 549.5,-30 569.5,-30 569.5,-10 549.5,-10"/>
<text text-anchor="start" x="573.1732" y="-15.4" font-family="sans-serif" font-size="14.00" fill="#000000"> &#160;Providers</text>
<polygon fill="#fb8072" stroke="transparent" points="645.5,-10 645.5,-30 665.5,-30 665.5,-10 645.5,-10"/>
<text text-anchor="start" x="669.2258" y="-15.4" font-family="sans-serif" font-size="14.00" fill="#000000"> &#160;Exports</text>
<g id="clust1" class="cluster">
<title>cluster_CreateComiteModule</title>
<polygon fill="none" stroke="#000000" stroke-dasharray="1,5" points="8,-70 8,-268 967,-268 967,-70 8,-70"/>
</g>
<g id="clust2" class="cluster">
<title>cluster_CreateComiteModule_declarations</title>
<polygon fill="none" stroke="#000000" points="783,-78 783,-130 959,-130 959,-78 783,-78"/>
</g>
<g id="clust4" class="cluster">
<title>cluster_CreateComiteModule_imports</title>
<polygon fill="none" stroke="#000000" points="16,-78 16,-130 775,-130 775,-78 16,-78"/>
</g>
<g id="clust6" class="cluster">
<title>cluster_CreateComiteModule_bootstrap</title>
<polygon fill="none" stroke="#000000" points="333,-208 333,-260 511,-260 511,-208 333,-208"/>
</g>
<!-- CreateComiteComponent -->
<g id="node1" class="node">
<title>CreateComiteComponent</title>
<polygon fill="#ffffb3" stroke="#000000" points="950.587,-122 791.413,-122 791.413,-86 950.587,-86 950.587,-122"/>
<text text-anchor="middle" x="871" y="-99.8" font-family="Times,serif" font-size="14.00" fill="#000000">CreateComiteComponent</text>
</g>
<!-- CreateComiteModule -->
<g id="node2" class="node">
<title>CreateComiteModule</title>
<polygon fill="#8dd3c7" stroke="#000000" points="490.8047,-187 487.8047,-191 466.8047,-191 463.8047,-187 353.1953,-187 353.1953,-151 490.8047,-151 490.8047,-187"/>
<text text-anchor="middle" x="422" y="-164.8" font-family="Times,serif" font-size="14.00" fill="#000000">CreateComiteModule</text>
</g>
<!-- CreateComiteComponent&#45;&gt;CreateComiteModule -->
<g id="edge1" class="edge">
<title>CreateComiteComponent&#45;&gt;CreateComiteModule</title>
<path fill="none" stroke="#000000" d="M871,-122.2843C871,-143.3211 871,-175 871,-175 871,-175 500.6822,-175 500.6822,-175"/>
<polygon fill="#000000" stroke="#000000" points="500.6822,-171.5001 490.6822,-175 500.6822,-178.5001 500.6822,-171.5001"/>
</g>
<!-- CreateComiteComponent  -->
<g id="node8" class="node">
<title>CreateComiteComponent </title>
<polygon fill="#80b1d3" stroke="#000000" points="503.0875,-252 340.9125,-252 340.9125,-216 503.0875,-216 503.0875,-252"/>
<text text-anchor="middle" x="422" y="-229.8" font-family="Times,serif" font-size="14.00" fill="#000000">CreateComiteComponent </text>
</g>
<!-- CreateComiteModule&#45;&gt;CreateComiteComponent  -->
<g id="edge7" class="edge">
<title>CreateComiteModule&#45;&gt;CreateComiteComponent </title>
<path fill="none" stroke="#000000" stroke-dasharray="1,5" d="M422,-187.1061C422,-187.1061 422,-205.991 422,-205.991"/>
<polygon fill="#000000" stroke="#000000" points="418.5001,-205.9909 422,-215.991 425.5001,-205.991 418.5001,-205.9909"/>
</g>
<!-- CreateComiteRoutingModule -->
<g id="node3" class="node">
<title>CreateComiteRoutingModule</title>
<polygon fill="#8dd3c7" stroke="#000000" points="767.4227,-122 764.4227,-126 743.4227,-126 740.4227,-122 584.5773,-122 584.5773,-86 767.4227,-86 767.4227,-122"/>
<text text-anchor="middle" x="676" y="-99.8" font-family="Times,serif" font-size="14.00" fill="#000000">CreateComiteRoutingModule</text>
</g>
<!-- CreateComiteRoutingModule&#45;&gt;CreateComiteModule -->
<g id="edge2" class="edge">
<title>CreateComiteRoutingModule&#45;&gt;CreateComiteModule</title>
<path fill="none" stroke="#000000" d="M676,-122.0225C676,-139.3734 676,-163 676,-163 676,-163 500.7361,-163 500.7361,-163"/>
<polygon fill="#000000" stroke="#000000" points="500.7361,-159.5001 490.7361,-163 500.736,-166.5001 500.7361,-159.5001"/>
</g>
<!-- ReactiveFormsModule -->
<g id="node4" class="node">
<title>ReactiveFormsModule</title>
<polygon fill="#8dd3c7" stroke="#000000" points="567.3047,-122 564.3047,-126 543.3047,-126 540.3047,-122 422.6953,-122 422.6953,-86 567.3047,-86 567.3047,-122"/>
<text text-anchor="middle" x="495" y="-99.8" font-family="Times,serif" font-size="14.00" fill="#000000">ReactiveFormsModule</text>
</g>
<!-- ReactiveFormsModule&#45;&gt;CreateComiteModule -->
<g id="edge3" class="edge">
<title>ReactiveFormsModule&#45;&gt;CreateComiteModule</title>
<path fill="none" stroke="#000000" d="M456.75,-122.1061C456.75,-122.1061 456.75,-140.991 456.75,-140.991"/>
<polygon fill="#000000" stroke="#000000" points="453.2501,-140.9909 456.75,-150.991 460.2501,-140.991 453.2501,-140.9909"/>
</g>
<!-- CommonModule -->
<g id="node5" class="node">
<title>CommonModule</title>
<polygon fill="#8dd3c7" stroke="#000000" points="404.6681,-122 401.6681,-126 380.6681,-126 377.6681,-122 293.3319,-122 293.3319,-86 404.6681,-86 404.6681,-122"/>
<text text-anchor="middle" x="349" y="-99.8" font-family="Times,serif" font-size="14.00" fill="#000000">CommonModule</text>
</g>
<!-- CommonModule&#45;&gt;CreateComiteModule -->
<g id="edge4" class="edge">
<title>CommonModule&#45;&gt;CreateComiteModule</title>
<path fill="none" stroke="#000000" d="M379.0908,-122.1061C379.0908,-122.1061 379.0908,-140.991 379.0908,-140.991"/>
<polygon fill="#000000" stroke="#000000" points="375.5909,-140.9909 379.0908,-150.991 382.5909,-140.991 375.5909,-140.9909"/>
</g>
<!-- MaterialDesignModule -->
<g id="node6" class="node">
<title>MaterialDesignModule</title>
<polygon fill="#8dd3c7" stroke="#000000" points="275.1275,-122 272.1275,-126 251.1275,-126 248.1275,-122 128.8725,-122 128.8725,-86 275.1275,-86 275.1275,-122"/>
<text text-anchor="middle" x="202" y="-99.8" font-family="Times,serif" font-size="14.00" fill="#000000">MaterialDesignModule</text>
</g>
<!-- MaterialDesignModule&#45;&gt;CreateComiteModule -->
<g id="edge5" class="edge">
<title>MaterialDesignModule&#45;&gt;CreateComiteModule</title>
<path fill="none" stroke="#000000" d="M202,-122.0225C202,-139.3734 202,-163 202,-163 202,-163 343.2956,-163 343.2956,-163"/>
<polygon fill="#000000" stroke="#000000" points="343.2956,-166.5001 353.2956,-163 343.2955,-159.5001 343.2956,-166.5001"/>
</g>
<!-- CoreModule -->
<g id="node7" class="node">
<title>CoreModule</title>
<polygon fill="#8dd3c7" stroke="#000000" points="110.2619,-122 107.2619,-126 86.2619,-126 83.2619,-122 23.7381,-122 23.7381,-86 110.2619,-86 110.2619,-122"/>
<text text-anchor="middle" x="67" y="-99.8" font-family="Times,serif" font-size="14.00" fill="#000000">CoreModule</text>
</g>
<!-- CoreModule&#45;&gt;CreateComiteModule -->
<g id="edge6" class="edge">
<title>CoreModule&#45;&gt;CreateComiteModule</title>
<path fill="none" stroke="#000000" d="M67,-122.2843C67,-143.3211 67,-175 67,-175 67,-175 343.1315,-175 343.1315,-175"/>
<polygon fill="#000000" stroke="#000000" points="343.1315,-178.5001 353.1315,-175 343.1315,-171.5001 343.1315,-178.5001"/>
</g>
</g>
</svg>
