<?xml version="1.0" encoding="UTF-8" standalone="no"?>
<!DOCTYPE svg PUBLIC "-//W3C//DTD SVG 1.1//EN"
 "http://www.w3.org/Graphics/SVG/1.1/DTD/svg11.dtd">
<!-- Generated by graphviz version 2.40.1 (20161225.0304)
 -->
<!-- Title: dependencies Pages: 1 -->
<svg width="1017pt" height="284pt"
 viewBox="0.00 0.00 1017.00 284.00" xmlns="http://www.w3.org/2000/svg" xmlns:xlink="http://www.w3.org/1999/xlink">
<g id="graph0" class="graph" transform="scale(1 1) rotate(0) translate(4 280)">
<title>dependencies</title>
<polygon fill="#ffffff" stroke="transparent" points="-4,4 -4,-280 1013,-280 1013,4 -4,4"/>
<text text-anchor="start" x="483.5091" y="-42.4" font-family="sans-serif" font-weight="bold" font-size="14.00" fill="#000000">Legend</text>
<polygon fill="#ffffb3" stroke="transparent" points="270.5,-10 270.5,-30 290.5,-30 290.5,-10 270.5,-10"/>
<text text-anchor="start" x="294.129" y="-15.4" font-family="sans-serif" font-size="14.00" fill="#000000"> &#160;Declarations</text>
<polygon fill="#8dd3c7" stroke="transparent" points="383.5,-10 383.5,-30 403.5,-30 403.5,-10 383.5,-10"/>
<text text-anchor="start" x="407.2251" y="-15.4" font-family="sans-serif" font-size="14.00" fill="#000000"> &#160;Module</text>
<polygon fill="#80b1d3" stroke="transparent" points="469.5,-10 469.5,-30 489.5,-30 489.5,-10 469.5,-10"/>
<text text-anchor="start" x="493.2812" y="-15.4" font-family="sans-serif" font-size="14.00" fill="#000000"> &#160;Bootstrap</text>
<polygon fill="#fdb462" stroke="transparent" points="566.5,-10 566.5,-30 586.5,-30 586.5,-10 566.5,-10"/>
<text text-anchor="start" x="590.1732" y="-15.4" font-family="sans-serif" font-size="14.00" fill="#000000"> &#160;Providers</text>
<polygon fill="#fb8072" stroke="transparent" points="662.5,-10 662.5,-30 682.5,-30 682.5,-10 662.5,-10"/>
<text text-anchor="start" x="686.2258" y="-15.4" font-family="sans-serif" font-size="14.00" fill="#000000"> &#160;Exports</text>
<g id="clust1" class="cluster">
<title>cluster_UploadFileModule</title>
<polygon fill="none" stroke="#000000" stroke-dasharray="1,5" points="8,-70 8,-268 1001,-268 1001,-70 8,-70"/>
</g>
<g id="clust2" class="cluster">
<title>cluster_UploadFileModule_declarations</title>
<polygon fill="none" stroke="#000000" points="833,-78 833,-130 993,-130 993,-78 833,-78"/>
</g>
<g id="clust4" class="cluster">
<title>cluster_UploadFileModule_imports</title>
<polygon fill="none" stroke="#000000" points="16,-78 16,-130 825,-130 825,-78 16,-78"/>
</g>
<g id="clust6" class="cluster">
<title>cluster_UploadFileModule_bootstrap</title>
<polygon fill="none" stroke="#000000" points="397,-208 397,-260 561,-260 561,-208 397,-208"/>
</g>
<!-- UploadFileComponent -->
<g id="node1" class="node">
<title>UploadFileComponent</title>
<polygon fill="#ffffb3" stroke="#000000" points="985.323,-122 840.677,-122 840.677,-86 985.323,-86 985.323,-122"/>
<text text-anchor="middle" x="913" y="-99.8" font-family="Times,serif" font-size="14.00" fill="#000000">UploadFileComponent</text>
</g>
<!-- UploadFileModule -->
<g id="node2" class="node">
<title>UploadFileModule</title>
<polygon fill="#8dd3c7" stroke="#000000" points="540.0409,-187 537.0409,-191 516.0409,-191 513.0409,-187 417.9591,-187 417.9591,-151 540.0409,-151 540.0409,-187"/>
<text text-anchor="middle" x="479" y="-164.8" font-family="Times,serif" font-size="14.00" fill="#000000">UploadFileModule</text>
</g>
<!-- UploadFileComponent&#45;&gt;UploadFileModule -->
<g id="edge1" class="edge">
<title>UploadFileComponent&#45;&gt;UploadFileModule</title>
<path fill="none" stroke="#000000" d="M913,-122.2921C913,-144.2057 913,-178 913,-178 913,-178 550.2611,-178 550.2611,-178"/>
<polygon fill="#000000" stroke="#000000" points="550.2611,-174.5001 540.2611,-178 550.2611,-181.5001 550.2611,-174.5001"/>
</g>
<!-- UploadFileComponent  -->
<g id="node9" class="node">
<title>UploadFileComponent </title>
<polygon fill="#80b1d3" stroke="#000000" points="552.8227,-252 405.1773,-252 405.1773,-216 552.8227,-216 552.8227,-252"/>
<text text-anchor="middle" x="479" y="-229.8" font-family="Times,serif" font-size="14.00" fill="#000000">UploadFileComponent </text>
</g>
<!-- UploadFileModule&#45;&gt;UploadFileComponent  -->
<g id="edge8" class="edge">
<title>UploadFileModule&#45;&gt;UploadFileComponent </title>
<path fill="none" stroke="#000000" stroke-dasharray="1,5" d="M479,-187.1061C479,-187.1061 479,-205.991 479,-205.991"/>
<polygon fill="#000000" stroke="#000000" points="475.5001,-205.9909 479,-215.991 482.5001,-205.991 475.5001,-205.9909"/>
</g>
<!-- HttpClientModule -->
<g id="node3" class="node">
<title>HttpClientModule</title>
<polygon fill="#8dd3c7" stroke="#000000" points="817.1611,-122 814.1611,-126 793.1611,-126 790.1611,-122 698.8389,-122 698.8389,-86 817.1611,-86 817.1611,-122"/>
<text text-anchor="middle" x="758" y="-99.8" font-family="Times,serif" font-size="14.00" fill="#000000">HttpClientModule</text>
</g>
<!-- HttpClientModule&#45;&gt;UploadFileModule -->
<g id="edge2" class="edge">
<title>HttpClientModule&#45;&gt;UploadFileModule</title>
<path fill="none" stroke="#000000" d="M758,-122.1061C758,-141.3391 758,-169 758,-169 758,-169 550.2277,-169 550.2277,-169"/>
<polygon fill="#000000" stroke="#000000" points="550.2278,-165.5001 540.2277,-169 550.2277,-172.5001 550.2278,-165.5001"/>
</g>
<!-- CommonModule -->
<g id="node4" class="node">
<title>CommonModule</title>
<polygon fill="#8dd3c7" stroke="#000000" points="680.6681,-122 677.6681,-126 656.6681,-126 653.6681,-122 569.3319,-122 569.3319,-86 680.6681,-86 680.6681,-122"/>
<text text-anchor="middle" x="625" y="-99.8" font-family="Times,serif" font-size="14.00" fill="#000000">CommonModule</text>
</g>
<!-- CommonModule&#45;&gt;UploadFileModule -->
<g id="edge3" class="edge">
<title>CommonModule&#45;&gt;UploadFileModule</title>
<path fill="none" stroke="#000000" d="M625,-122.027C625,-138.3976 625,-160 625,-160 625,-160 550.0712,-160 550.0712,-160"/>
<polygon fill="#000000" stroke="#000000" points="550.0712,-156.5001 540.0712,-160 550.0712,-163.5001 550.0712,-156.5001"/>
</g>
<!-- ReactiveFormsModule -->
<g id="node5" class="node">
<title>ReactiveFormsModule</title>
<polygon fill="#8dd3c7" stroke="#000000" points="551.3047,-122 548.3047,-126 527.3047,-126 524.3047,-122 406.6953,-122 406.6953,-86 551.3047,-86 551.3047,-122"/>
<text text-anchor="middle" x="479" y="-99.8" font-family="Times,serif" font-size="14.00" fill="#000000">ReactiveFormsModule</text>
</g>
<!-- ReactiveFormsModule&#45;&gt;UploadFileModule -->
<g id="edge4" class="edge">
<title>ReactiveFormsModule&#45;&gt;UploadFileModule</title>
<path fill="none" stroke="#000000" d="M479,-122.1061C479,-122.1061 479,-140.991 479,-140.991"/>
<polygon fill="#000000" stroke="#000000" points="475.5001,-140.9909 479,-150.991 482.5001,-140.991 475.5001,-140.9909"/>
</g>
<!-- FormsModule -->
<g id="node6" class="node">
<title>FormsModule</title>
<polygon fill="#8dd3c7" stroke="#000000" points="388.8288,-122 385.8288,-126 364.8288,-126 361.8288,-122 293.1712,-122 293.1712,-86 388.8288,-86 388.8288,-122"/>
<text text-anchor="middle" x="341" y="-99.8" font-family="Times,serif" font-size="14.00" fill="#000000">FormsModule</text>
</g>
<!-- FormsModule&#45;&gt;UploadFileModule -->
<g id="edge5" class="edge">
<title>FormsModule&#45;&gt;UploadFileModule</title>
<path fill="none" stroke="#000000" d="M341,-122.027C341,-138.3976 341,-160 341,-160 341,-160 407.6675,-160 407.6675,-160"/>
<polygon fill="#000000" stroke="#000000" points="407.6676,-163.5001 417.6675,-160 407.6675,-156.5001 407.6676,-163.5001"/>
</g>
<!-- CoreModule -->
<g id="node7" class="node">
<title>CoreModule</title>
<polygon fill="#8dd3c7" stroke="#000000" points="275.2619,-122 272.2619,-126 251.2619,-126 248.2619,-122 188.7381,-122 188.7381,-86 275.2619,-86 275.2619,-122"/>
<text text-anchor="middle" x="232" y="-99.8" font-family="Times,serif" font-size="14.00" fill="#000000">CoreModule</text>
</g>
<!-- CoreModule&#45;&gt;UploadFileModule -->
<g id="edge6" class="edge">
<title>CoreModule&#45;&gt;UploadFileModule</title>
<path fill="none" stroke="#000000" d="M232,-122.1061C232,-141.3391 232,-169 232,-169 232,-169 407.9438,-169 407.9438,-169"/>
<polygon fill="#000000" stroke="#000000" points="407.9438,-172.5001 417.9438,-169 407.9438,-165.5001 407.9438,-172.5001"/>
</g>
<!-- MaterialDesignModule -->
<g id="node8" class="node">
<title>MaterialDesignModule</title>
<polygon fill="#8dd3c7" stroke="#000000" points="170.1275,-122 167.1275,-126 146.1275,-126 143.1275,-122 23.8725,-122 23.8725,-86 170.1275,-86 170.1275,-122"/>
<text text-anchor="middle" x="97" y="-99.8" font-family="Times,serif" font-size="14.00" fill="#000000">MaterialDesignModule</text>
</g>
<!-- MaterialDesignModule&#45;&gt;UploadFileModule -->
<g id="edge7" class="edge">
<title>MaterialDesignModule&#45;&gt;UploadFileModule</title>
<path fill="none" stroke="#000000" d="M97,-122.2921C97,-144.2057 97,-178 97,-178 97,-178 407.6251,-178 407.6251,-178"/>
<polygon fill="#000000" stroke="#000000" points="407.6251,-181.5001 417.6251,-178 407.6251,-174.5001 407.6251,-181.5001"/>
</g>
</g>
</svg>
