<?xml version="1.0" encoding="UTF-8" standalone="no"?>
<!DOCTYPE svg PUBLIC "-//W3C//DTD SVG 1.1//EN"
 "http://www.w3.org/Graphics/SVG/1.1/DTD/svg11.dtd">
<!-- Generated by graphviz version 2.40.1 (20161225.0304)
 -->
<!-- Title: dependencies Pages: 1 -->
<svg width="878pt" height="211pt"
 viewBox="0.00 0.00 878.00 211.00" xmlns="http://www.w3.org/2000/svg" xmlns:xlink="http://www.w3.org/1999/xlink">
<g id="graph0" class="graph" transform="scale(1 1) rotate(0) translate(4 207)">
<title>dependencies</title>
<polygon fill="#ffffff" stroke="transparent" points="-4,4 -4,-207 874,-207 874,4 -4,4"/>
<text text-anchor="start" x="414.0091" y="-42.4" font-family="sans-serif" font-weight="bold" font-size="14.00" fill="#000000">Legend</text>
<polygon fill="#ffffb3" stroke="transparent" points="201,-10 201,-30 221,-30 221,-10 201,-10"/>
<text text-anchor="start" x="224.629" y="-15.4" font-family="sans-serif" font-size="14.00" fill="#000000"> &#160;Declarations</text>
<polygon fill="#8dd3c7" stroke="transparent" points="314,-10 314,-30 334,-30 334,-10 314,-10"/>
<text text-anchor="start" x="337.7251" y="-15.4" font-family="sans-serif" font-size="14.00" fill="#000000"> &#160;Module</text>
<polygon fill="#80b1d3" stroke="transparent" points="400,-10 400,-30 420,-30 420,-10 400,-10"/>
<text text-anchor="start" x="423.7812" y="-15.4" font-family="sans-serif" font-size="14.00" fill="#000000"> &#160;Bootstrap</text>
<polygon fill="#fdb462" stroke="transparent" points="497,-10 497,-30 517,-30 517,-10 497,-10"/>
<text text-anchor="start" x="520.6732" y="-15.4" font-family="sans-serif" font-size="14.00" fill="#000000"> &#160;Providers</text>
<polygon fill="#fb8072" stroke="transparent" points="593,-10 593,-30 613,-30 613,-10 593,-10"/>
<text text-anchor="start" x="616.7258" y="-15.4" font-family="sans-serif" font-size="14.00" fill="#000000"> &#160;Exports</text>
<g id="clust1" class="cluster">
<title>cluster_ListAnnouncementsModule</title>
<polygon fill="none" stroke="#000000" stroke-dasharray="1,5" points="8,-70 8,-195 862,-195 862,-70 8,-70"/>
</g>
<g id="clust2" class="cluster">
<title>cluster_ListAnnouncementsModule_declarations</title>
<polygon fill="none" stroke="#000000" points="644,-78 644,-130 854,-130 854,-78 644,-78"/>
</g>
<g id="clust4" class="cluster">
<title>cluster_ListAnnouncementsModule_imports</title>
<polygon fill="none" stroke="#000000" points="16,-78 16,-130 636,-130 636,-78 16,-78"/>
</g>
<!-- ListAnnouncementsComponent -->
<g id="node1" class="node">
<title>ListAnnouncementsComponent</title>
<polygon fill="#ffffb3" stroke="#000000" points="846.087,-122 651.913,-122 651.913,-86 846.087,-86 846.087,-122"/>
<text text-anchor="middle" x="749" y="-99.8" font-family="Times,serif" font-size="14.00" fill="#000000">ListAnnouncementsComponent</text>
</g>
<!-- ListAnnouncementsModule -->
<g id="node2" class="node">
<title>ListAnnouncementsModule</title>
<polygon fill="#8dd3c7" stroke="#000000" points="541.3047,-187 538.3047,-191 517.3047,-191 514.3047,-187 368.6953,-187 368.6953,-151 541.3047,-151 541.3047,-187"/>
<text text-anchor="middle" x="455" y="-164.8" font-family="Times,serif" font-size="14.00" fill="#000000">ListAnnouncementsModule</text>
</g>
<!-- ListAnnouncementsComponent&#45;&gt;ListAnnouncementsModule -->
<g id="edge1" class="edge">
<title>ListAnnouncementsComponent&#45;&gt;ListAnnouncementsModule</title>
<path fill="none" stroke="#000000" d="M749,-122.1061C749,-141.3391 749,-169 749,-169 749,-169 551.2232,-169 551.2232,-169"/>
<polygon fill="#000000" stroke="#000000" points="551.2232,-165.5001 541.2232,-169 551.2232,-172.5001 551.2232,-165.5001"/>
</g>
<!-- CommonModule -->
<g id="node3" class="node">
<title>CommonModule</title>
<polygon fill="#8dd3c7" stroke="#000000" points="627.6681,-122 624.6681,-126 603.6681,-126 600.6681,-122 516.3319,-122 516.3319,-86 627.6681,-86 627.6681,-122"/>
<text text-anchor="middle" x="572" y="-99.8" font-family="Times,serif" font-size="14.00" fill="#000000">CommonModule</text>
</g>
<!-- CommonModule&#45;&gt;ListAnnouncementsModule -->
<g id="edge2" class="edge">
<title>CommonModule&#45;&gt;ListAnnouncementsModule</title>
<path fill="none" stroke="#000000" d="M528.6592,-122.1061C528.6592,-122.1061 528.6592,-140.991 528.6592,-140.991"/>
<polygon fill="#000000" stroke="#000000" points="525.1593,-140.9909 528.6592,-150.991 532.1593,-140.991 525.1593,-140.9909"/>
</g>
<!-- CoreModule -->
<g id="node4" class="node">
<title>CoreModule</title>
<polygon fill="#8dd3c7" stroke="#000000" points="498.2619,-122 495.2619,-126 474.2619,-126 471.2619,-122 411.7381,-122 411.7381,-86 498.2619,-86 498.2619,-122"/>
<text text-anchor="middle" x="455" y="-99.8" font-family="Times,serif" font-size="14.00" fill="#000000">CoreModule</text>
</g>
<!-- CoreModule&#45;&gt;ListAnnouncementsModule -->
<g id="edge3" class="edge">
<title>CoreModule&#45;&gt;ListAnnouncementsModule</title>
<path fill="none" stroke="#000000" d="M455,-122.1061C455,-122.1061 455,-140.991 455,-140.991"/>
<polygon fill="#000000" stroke="#000000" points="451.5001,-140.9909 455,-150.991 458.5001,-140.991 451.5001,-140.9909"/>
</g>
<!-- MaterialDesignModule -->
<g id="node5" class="node">
<title>MaterialDesignModule</title>
<polygon fill="#8dd3c7" stroke="#000000" points="393.1275,-122 390.1275,-126 369.1275,-126 366.1275,-122 246.8725,-122 246.8725,-86 393.1275,-86 393.1275,-122"/>
<text text-anchor="middle" x="320" y="-99.8" font-family="Times,serif" font-size="14.00" fill="#000000">MaterialDesignModule</text>
</g>
<!-- MaterialDesignModule&#45;&gt;ListAnnouncementsModule -->
<g id="edge4" class="edge">
<title>MaterialDesignModule&#45;&gt;ListAnnouncementsModule</title>
<path fill="none" stroke="#000000" d="M381.0807,-122.1061C381.0807,-122.1061 381.0807,-140.991 381.0807,-140.991"/>
<polygon fill="#000000" stroke="#000000" points="377.5807,-140.9909 381.0807,-150.991 384.5807,-140.991 377.5807,-140.9909"/>
</g>
<!-- ListAnnoucementRoutingModule -->
<g id="node6" class="node">
<title>ListAnnoucementRoutingModule</title>
<polygon fill="#8dd3c7" stroke="#000000" points="228.4776,-122 225.4776,-126 204.4776,-126 201.4776,-122 23.5224,-122 23.5224,-86 228.4776,-86 228.4776,-122"/>
<text text-anchor="middle" x="126" y="-99.8" font-family="Times,serif" font-size="14.00" fill="#000000">ListAnnoucementRoutingModule</text>
</g>
<!-- ListAnnoucementRoutingModule&#45;&gt;ListAnnouncementsModule -->
<g id="edge5" class="edge">
<title>ListAnnoucementRoutingModule&#45;&gt;ListAnnouncementsModule</title>
<path fill="none" stroke="#000000" d="M126,-122.1061C126,-141.3391 126,-169 126,-169 126,-169 358.5591,-169 358.5591,-169"/>
<polygon fill="#000000" stroke="#000000" points="358.5592,-172.5001 368.5591,-169 358.5591,-165.5001 358.5592,-172.5001"/>
</g>
</g>
</svg>
