<?xml version="1.0" encoding="UTF-8" standalone="no"?>
<!DOCTYPE svg PUBLIC "-//W3C//DTD SVG 1.1//EN"
 "http://www.w3.org/Graphics/SVG/1.1/DTD/svg11.dtd">
<!-- Generated by graphviz version 2.40.1 (20161225.0304)
 -->
<!-- Title: dependencies Pages: 1 -->
<svg width="640pt" height="284pt"
 viewBox="0.00 0.00 640.00 284.00" xmlns="http://www.w3.org/2000/svg" xmlns:xlink="http://www.w3.org/1999/xlink">
<g id="graph0" class="graph" transform="scale(1 1) rotate(0) translate(4 280)">
<title>dependencies</title>
<polygon fill="#ffffff" stroke="transparent" points="-4,4 -4,-280 636,-280 636,4 -4,4"/>
<text text-anchor="start" x="295.0091" y="-42.4" font-family="sans-serif" font-weight="bold" font-size="14.00" fill="#000000">Legend</text>
<polygon fill="#ffffb3" stroke="transparent" points="82,-10 82,-30 102,-30 102,-10 82,-10"/>
<text text-anchor="start" x="105.629" y="-15.4" font-family="sans-serif" font-size="14.00" fill="#000000"> &#160;Declarations</text>
<polygon fill="#8dd3c7" stroke="transparent" points="195,-10 195,-30 215,-30 215,-10 195,-10"/>
<text text-anchor="start" x="218.7251" y="-15.4" font-family="sans-serif" font-size="14.00" fill="#000000"> &#160;Module</text>
<polygon fill="#80b1d3" stroke="transparent" points="281,-10 281,-30 301,-30 301,-10 281,-10"/>
<text text-anchor="start" x="304.7812" y="-15.4" font-family="sans-serif" font-size="14.00" fill="#000000"> &#160;Bootstrap</text>
<polygon fill="#fdb462" stroke="transparent" points="378,-10 378,-30 398,-30 398,-10 378,-10"/>
<text text-anchor="start" x="401.6732" y="-15.4" font-family="sans-serif" font-size="14.00" fill="#000000"> &#160;Providers</text>
<polygon fill="#fb8072" stroke="transparent" points="474,-10 474,-30 494,-30 494,-10 474,-10"/>
<text text-anchor="start" x="497.7258" y="-15.4" font-family="sans-serif" font-size="14.00" fill="#000000"> &#160;Exports</text>
<g id="clust1" class="cluster">
<title>cluster_CoreModule</title>
<polygon fill="none" stroke="#000000" stroke-dasharray="1,5" points="8,-70 8,-268 624,-268 624,-70 8,-70"/>
</g>
<g id="clust2" class="cluster">
<title>cluster_CoreModule_declarations</title>
<polygon fill="none" stroke="#000000" points="316,-78 316,-130 616,-130 616,-78 316,-78"/>
</g>
<g id="clust5" class="cluster">
<title>cluster_CoreModule_imports</title>
<polygon fill="none" stroke="#000000" points="16,-78 16,-130 308,-130 308,-78 16,-78"/>
</g>
<g id="clust6" class="cluster">
<title>cluster_CoreModule_exports</title>
<polygon fill="none" stroke="#000000" points="158,-208 158,-260 466,-260 466,-208 158,-208"/>
</g>
<!-- NavbarComponent -->
<g id="node1" class="node">
<title>NavbarComponent</title>
<polygon fill="#ffffb3" stroke="#000000" points="608.0297,-122 485.9703,-122 485.9703,-86 608.0297,-86 608.0297,-122"/>
<text text-anchor="middle" x="547" y="-99.8" font-family="Times,serif" font-size="14.00" fill="#000000">NavbarComponent</text>
</g>
<!-- CoreModule -->
<g id="node3" class="node">
<title>CoreModule</title>
<polygon fill="#8dd3c7" stroke="#000000" points="360.2619,-187 357.2619,-191 336.2619,-191 333.2619,-187 273.7381,-187 273.7381,-151 360.2619,-151 360.2619,-187"/>
<text text-anchor="middle" x="317" y="-164.8" font-family="Times,serif" font-size="14.00" fill="#000000">CoreModule</text>
</g>
<!-- NavbarComponent&#45;&gt;CoreModule -->
<g id="edge1" class="edge">
<title>NavbarComponent&#45;&gt;CoreModule</title>
<path fill="none" stroke="#000000" d="M547,-122.1061C547,-141.3391 547,-169 547,-169 547,-169 370.5316,-169 370.5316,-169"/>
<polygon fill="#000000" stroke="#000000" points="370.5317,-165.5001 360.5316,-169 370.5316,-172.5001 370.5317,-165.5001"/>
</g>
<!-- UploadFileComponent -->
<g id="node2" class="node">
<title>UploadFileComponent</title>
<polygon fill="#ffffb3" stroke="#000000" points="468.323,-122 323.677,-122 323.677,-86 468.323,-86 468.323,-122"/>
<text text-anchor="middle" x="396" y="-99.8" font-family="Times,serif" font-size="14.00" fill="#000000">UploadFileComponent</text>
</g>
<!-- UploadFileComponent&#45;&gt;CoreModule -->
<g id="edge2" class="edge">
<title>UploadFileComponent&#45;&gt;CoreModule</title>
<path fill="none" stroke="#000000" d="M342.1098,-122.1061C342.1098,-122.1061 342.1098,-140.991 342.1098,-140.991"/>
<polygon fill="#000000" stroke="#000000" points="338.6098,-140.9909 342.1098,-150.991 345.6098,-140.991 338.6098,-140.9909"/>
</g>
<!-- NavbarComponent  -->
<g id="node6" class="node">
<title>NavbarComponent </title>
<polygon fill="#fb8072" stroke="#000000" points="458.0288,-252 331.9712,-252 331.9712,-216 458.0288,-216 458.0288,-252"/>
<text text-anchor="middle" x="395" y="-229.8" font-family="Times,serif" font-size="14.00" fill="#000000">NavbarComponent </text>
</g>
<!-- CoreModule&#45;&gt;NavbarComponent  -->
<g id="edge5" class="edge">
<title>CoreModule&#45;&gt;NavbarComponent </title>
<path fill="none" stroke="#000000" stroke-dasharray="5,2" d="M346.1832,-187.1061C346.1832,-187.1061 346.1832,-205.991 346.1832,-205.991"/>
<polygon fill="#000000" stroke="#000000" points="342.6833,-205.9909 346.1832,-215.991 349.6833,-205.991 342.6833,-205.9909"/>
</g>
<!-- UploadFileComponent  -->
<g id="node7" class="node">
<title>UploadFileComponent </title>
<polygon fill="#fb8072" stroke="#000000" points="313.8227,-252 166.1773,-252 166.1773,-216 313.8227,-216 313.8227,-252"/>
<text text-anchor="middle" x="240" y="-229.8" font-family="Times,serif" font-size="14.00" fill="#000000">UploadFileComponent </text>
</g>
<!-- CoreModule&#45;&gt;UploadFileComponent  -->
<g id="edge6" class="edge">
<title>CoreModule&#45;&gt;UploadFileComponent </title>
<path fill="none" stroke="#000000" stroke-dasharray="5,2" d="M293.7653,-187.1061C293.7653,-187.1061 293.7653,-205.991 293.7653,-205.991"/>
<polygon fill="#000000" stroke="#000000" points="290.2653,-205.9909 293.7653,-215.991 297.2653,-205.991 290.2653,-205.9909"/>
</g>
<!-- CommonModule -->
<g id="node4" class="node">
<title>CommonModule</title>
<polygon fill="#8dd3c7" stroke="#000000" points="299.6681,-122 296.6681,-126 275.6681,-126 272.6681,-122 188.3319,-122 188.3319,-86 299.6681,-86 299.6681,-122"/>
<text text-anchor="middle" x="244" y="-99.8" font-family="Times,serif" font-size="14.00" fill="#000000">CommonModule</text>
</g>
<!-- CommonModule&#45;&gt;CoreModule -->
<g id="edge3" class="edge">
<title>CommonModule&#45;&gt;CoreModule</title>
<path fill="none" stroke="#000000" d="M286.7265,-122.1061C286.7265,-122.1061 286.7265,-140.991 286.7265,-140.991"/>
<polygon fill="#000000" stroke="#000000" points="283.2266,-140.9909 286.7265,-150.991 290.2266,-140.991 283.2266,-140.9909"/>
</g>
<!-- MaterialDesignModule -->
<g id="node5" class="node">
<title>MaterialDesignModule</title>
<polygon fill="#8dd3c7" stroke="#000000" points="170.1275,-122 167.1275,-126 146.1275,-126 143.1275,-122 23.8725,-122 23.8725,-86 170.1275,-86 170.1275,-122"/>
<text text-anchor="middle" x="97" y="-99.8" font-family="Times,serif" font-size="14.00" fill="#000000">MaterialDesignModule</text>
</g>
<!-- MaterialDesignModule&#45;&gt;CoreModule -->
<g id="edge4" class="edge">
<title>MaterialDesignModule&#45;&gt;CoreModule</title>
<path fill="none" stroke="#000000" d="M94.8876,-122.1061C94.8876,-141.3391 94.8876,-169 94.8876,-169 94.8876,-169 263.6472,-169 263.6472,-169"/>
<polygon fill="#000000" stroke="#000000" points="263.6473,-172.5001 273.6472,-169 263.6472,-165.5001 263.6473,-172.5001"/>
</g>
</g>
</svg>
