<?xml version="1.0" encoding="UTF-8" standalone="no"?>
<!DOCTYPE svg PUBLIC "-//W3C//DTD SVG 1.1//EN"
 "http://www.w3.org/Graphics/SVG/1.1/DTD/svg11.dtd">
<!-- Generated by graphviz version 2.40.1 (20161225.0304)
 -->
<!-- Title: dependencies Pages: 1 -->
<svg width="1018pt" height="284pt"
 viewBox="0.00 0.00 1018.00 284.00" xmlns="http://www.w3.org/2000/svg" xmlns:xlink="http://www.w3.org/1999/xlink">
<g id="graph0" class="graph" transform="scale(1 1) rotate(0) translate(4 280)">
<title>dependencies</title>
<polygon fill="#ffffff" stroke="transparent" points="-4,4 -4,-280 1014,-280 1014,4 -4,4"/>
<text text-anchor="start" x="484.0091" y="-42.4" font-family="sans-serif" font-weight="bold" font-size="14.00" fill="#000000">Legend</text>
<polygon fill="#ffffb3" stroke="transparent" points="271,-10 271,-30 291,-30 291,-10 271,-10"/>
<text text-anchor="start" x="294.629" y="-15.4" font-family="sans-serif" font-size="14.00" fill="#000000"> &#160;Declarations</text>
<polygon fill="#8dd3c7" stroke="transparent" points="384,-10 384,-30 404,-30 404,-10 384,-10"/>
<text text-anchor="start" x="407.7251" y="-15.4" font-family="sans-serif" font-size="14.00" fill="#000000"> &#160;Module</text>
<polygon fill="#80b1d3" stroke="transparent" points="470,-10 470,-30 490,-30 490,-10 470,-10"/>
<text text-anchor="start" x="493.7812" y="-15.4" font-family="sans-serif" font-size="14.00" fill="#000000"> &#160;Bootstrap</text>
<polygon fill="#fdb462" stroke="transparent" points="567,-10 567,-30 587,-30 587,-10 567,-10"/>
<text text-anchor="start" x="590.6732" y="-15.4" font-family="sans-serif" font-size="14.00" fill="#000000"> &#160;Providers</text>
<polygon fill="#fb8072" stroke="transparent" points="663,-10 663,-30 683,-30 683,-10 663,-10"/>
<text text-anchor="start" x="686.7258" y="-15.4" font-family="sans-serif" font-size="14.00" fill="#000000"> &#160;Exports</text>
<g id="clust1" class="cluster">
<title>cluster_ProfileModule</title>
<polygon fill="none" stroke="#000000" stroke-dasharray="1,5" points="8,-70 8,-268 1002,-268 1002,-70 8,-70"/>
</g>
<g id="clust2" class="cluster">
<title>cluster_ProfileModule_declarations</title>
<polygon fill="none" stroke="#000000" points="858,-78 858,-130 994,-130 994,-78 858,-78"/>
</g>
<g id="clust4" class="cluster">
<title>cluster_ProfileModule_imports</title>
<polygon fill="none" stroke="#000000" points="16,-78 16,-130 850,-130 850,-78 16,-78"/>
</g>
<g id="clust6" class="cluster">
<title>cluster_ProfileModule_bootstrap</title>
<polygon fill="none" stroke="#000000" points="467,-208 467,-260 605,-260 605,-208 467,-208"/>
</g>
<!-- ProfileComponent -->
<g id="node1" class="node">
<title>ProfileComponent</title>
<polygon fill="#ffffb3" stroke="#000000" points="985.9328,-122 866.0672,-122 866.0672,-86 985.9328,-86 985.9328,-122"/>
<text text-anchor="middle" x="926" y="-99.8" font-family="Times,serif" font-size="14.00" fill="#000000">ProfileComponent</text>
</g>
<!-- ProfileModule -->
<g id="node2" class="node">
<title>ProfileModule</title>
<polygon fill="#8dd3c7" stroke="#000000" points="584.65,-187 581.65,-191 560.65,-191 557.65,-187 487.35,-187 487.35,-151 584.65,-151 584.65,-187"/>
<text text-anchor="middle" x="536" y="-164.8" font-family="Times,serif" font-size="14.00" fill="#000000">ProfileModule</text>
</g>
<!-- ProfileComponent&#45;&gt;ProfileModule -->
<g id="edge1" class="edge">
<title>ProfileComponent&#45;&gt;ProfileModule</title>
<path fill="none" stroke="#000000" d="M926,-122.2921C926,-144.2057 926,-178 926,-178 926,-178 594.9989,-178 594.9989,-178"/>
<polygon fill="#000000" stroke="#000000" points="594.9989,-174.5001 584.9989,-178 594.9988,-181.5001 594.9989,-174.5001"/>
</g>
<!-- ProfileComponent  -->
<g id="node9" class="node">
<title>ProfileComponent </title>
<polygon fill="#80b1d3" stroke="#000000" points="597.432,-252 474.568,-252 474.568,-216 597.432,-216 597.432,-252"/>
<text text-anchor="middle" x="536" y="-229.8" font-family="Times,serif" font-size="14.00" fill="#000000">ProfileComponent </text>
</g>
<!-- ProfileModule&#45;&gt;ProfileComponent  -->
<g id="edge8" class="edge">
<title>ProfileModule&#45;&gt;ProfileComponent </title>
<path fill="none" stroke="#000000" stroke-dasharray="1,5" d="M536,-187.1061C536,-187.1061 536,-205.991 536,-205.991"/>
<polygon fill="#000000" stroke="#000000" points="532.5001,-205.9909 536,-215.991 539.5001,-205.991 532.5001,-205.9909"/>
</g>
<!-- CommonModule -->
<g id="node3" class="node">
<title>CommonModule</title>
<polygon fill="#8dd3c7" stroke="#000000" points="841.6681,-122 838.6681,-126 817.6681,-126 814.6681,-122 730.3319,-122 730.3319,-86 841.6681,-86 841.6681,-122"/>
<text text-anchor="middle" x="786" y="-99.8" font-family="Times,serif" font-size="14.00" fill="#000000">CommonModule</text>
</g>
<!-- CommonModule&#45;&gt;ProfileModule -->
<g id="edge2" class="edge">
<title>CommonModule&#45;&gt;ProfileModule</title>
<path fill="none" stroke="#000000" d="M786,-122.1061C786,-141.3391 786,-169 786,-169 786,-169 594.796,-169 594.796,-169"/>
<polygon fill="#000000" stroke="#000000" points="594.796,-165.5001 584.796,-169 594.796,-172.5001 594.796,-165.5001"/>
</g>
<!-- CoreModule -->
<g id="node4" class="node">
<title>CoreModule</title>
<polygon fill="#8dd3c7" stroke="#000000" points="712.2619,-122 709.2619,-126 688.2619,-126 685.2619,-122 625.7381,-122 625.7381,-86 712.2619,-86 712.2619,-122"/>
<text text-anchor="middle" x="669" y="-99.8" font-family="Times,serif" font-size="14.00" fill="#000000">CoreModule</text>
</g>
<!-- CoreModule&#45;&gt;ProfileModule -->
<g id="edge3" class="edge">
<title>CoreModule&#45;&gt;ProfileModule</title>
<path fill="none" stroke="#000000" d="M669,-122.027C669,-138.3976 669,-160 669,-160 669,-160 594.7691,-160 594.7691,-160"/>
<polygon fill="#000000" stroke="#000000" points="594.7691,-156.5001 584.7691,-160 594.769,-163.5001 594.7691,-156.5001"/>
</g>
<!-- ProfileRoutingModule -->
<g id="node5" class="node">
<title>ProfileRoutingModule</title>
<polygon fill="#8dd3c7" stroke="#000000" points="607.2674,-122 604.2674,-126 583.2674,-126 580.2674,-122 464.7326,-122 464.7326,-86 607.2674,-86 607.2674,-122"/>
<text text-anchor="middle" x="536" y="-99.8" font-family="Times,serif" font-size="14.00" fill="#000000">ProfileRoutingModule</text>
</g>
<!-- ProfileRoutingModule&#45;&gt;ProfileModule -->
<g id="edge4" class="edge">
<title>ProfileRoutingModule&#45;&gt;ProfileModule</title>
<path fill="none" stroke="#000000" d="M536,-122.1061C536,-122.1061 536,-140.991 536,-140.991"/>
<polygon fill="#000000" stroke="#000000" points="532.5001,-140.9909 536,-150.991 539.5001,-140.991 532.5001,-140.9909"/>
</g>
<!-- MaterialDesignModule -->
<g id="node6" class="node">
<title>MaterialDesignModule</title>
<polygon fill="#8dd3c7" stroke="#000000" points="446.1275,-122 443.1275,-126 422.1275,-126 419.1275,-122 299.8725,-122 299.8725,-86 446.1275,-86 446.1275,-122"/>
<text text-anchor="middle" x="373" y="-99.8" font-family="Times,serif" font-size="14.00" fill="#000000">MaterialDesignModule</text>
</g>
<!-- MaterialDesignModule&#45;&gt;ProfileModule -->
<g id="edge5" class="edge">
<title>MaterialDesignModule&#45;&gt;ProfileModule</title>
<path fill="none" stroke="#000000" d="M373,-122.027C373,-138.3976 373,-160 373,-160 373,-160 477.0946,-160 477.0946,-160"/>
<polygon fill="#000000" stroke="#000000" points="477.0947,-163.5001 487.0946,-160 477.0946,-156.5001 477.0947,-163.5001"/>
</g>
<!-- ReactiveFormsModule -->
<g id="node7" class="node">
<title>ReactiveFormsModule</title>
<polygon fill="#8dd3c7" stroke="#000000" points="282.3047,-122 279.3047,-126 258.3047,-126 255.3047,-122 137.6953,-122 137.6953,-86 282.3047,-86 282.3047,-122"/>
<text text-anchor="middle" x="210" y="-99.8" font-family="Times,serif" font-size="14.00" fill="#000000">ReactiveFormsModule</text>
</g>
<!-- ReactiveFormsModule&#45;&gt;ProfileModule -->
<g id="edge6" class="edge">
<title>ReactiveFormsModule&#45;&gt;ProfileModule</title>
<path fill="none" stroke="#000000" d="M210,-122.1061C210,-141.3391 210,-169 210,-169 210,-169 477.1945,-169 477.1945,-169"/>
<polygon fill="#000000" stroke="#000000" points="477.1945,-172.5001 487.1945,-169 477.1945,-165.5001 477.1945,-172.5001"/>
</g>
<!-- FormsModule -->
<g id="node8" class="node">
<title>FormsModule</title>
<polygon fill="#8dd3c7" stroke="#000000" points="119.8288,-122 116.8288,-126 95.8288,-126 92.8288,-122 24.1712,-122 24.1712,-86 119.8288,-86 119.8288,-122"/>
<text text-anchor="middle" x="72" y="-99.8" font-family="Times,serif" font-size="14.00" fill="#000000">FormsModule</text>
</g>
<!-- FormsModule&#45;&gt;ProfileModule -->
<g id="edge7" class="edge">
<title>FormsModule&#45;&gt;ProfileModule</title>
<path fill="none" stroke="#000000" d="M72,-122.2921C72,-144.2057 72,-178 72,-178 72,-178 477.2209,-178 477.2209,-178"/>
<polygon fill="#000000" stroke="#000000" points="477.2209,-181.5001 487.2209,-178 477.2208,-174.5001 477.2209,-181.5001"/>
</g>
</g>
</svg>
