<?xml version="1.0" encoding="UTF-8" standalone="no"?>
<!DOCTYPE svg PUBLIC "-//W3C//DTD SVG 1.1//EN"
 "http://www.w3.org/Graphics/SVG/1.1/DTD/svg11.dtd">
<!-- Generated by graphviz version 2.40.1 (20161225.0304)
 -->
<!-- Title: dependencies Pages: 1 -->
<svg width="879pt" height="211pt"
 viewBox="0.00 0.00 879.00 211.00" xmlns="http://www.w3.org/2000/svg" xmlns:xlink="http://www.w3.org/1999/xlink">
<g id="graph0" class="graph" transform="scale(1 1) rotate(0) translate(4 207)">
<title>dependencies</title>
<polygon fill="#ffffff" stroke="transparent" points="-4,4 -4,-207 875,-207 875,4 -4,4"/>
<text text-anchor="start" x="414.5091" y="-42.4" font-family="sans-serif" font-weight="bold" font-size="14.00" fill="#000000">Legend</text>
<polygon fill="#ffffb3" stroke="transparent" points="201.5,-10 201.5,-30 221.5,-30 221.5,-10 201.5,-10"/>
<text text-anchor="start" x="225.129" y="-15.4" font-family="sans-serif" font-size="14.00" fill="#000000"> &#160;Declarations</text>
<polygon fill="#8dd3c7" stroke="transparent" points="314.5,-10 314.5,-30 334.5,-30 334.5,-10 314.5,-10"/>
<text text-anchor="start" x="338.2251" y="-15.4" font-family="sans-serif" font-size="14.00" fill="#000000"> &#160;Module</text>
<polygon fill="#80b1d3" stroke="transparent" points="400.5,-10 400.5,-30 420.5,-30 420.5,-10 400.5,-10"/>
<text text-anchor="start" x="424.2812" y="-15.4" font-family="sans-serif" font-size="14.00" fill="#000000"> &#160;Bootstrap</text>
<polygon fill="#fdb462" stroke="transparent" points="497.5,-10 497.5,-30 517.5,-30 517.5,-10 497.5,-10"/>
<text text-anchor="start" x="521.1732" y="-15.4" font-family="sans-serif" font-size="14.00" fill="#000000"> &#160;Providers</text>
<polygon fill="#fb8072" stroke="transparent" points="593.5,-10 593.5,-30 613.5,-30 613.5,-10 593.5,-10"/>
<text text-anchor="start" x="617.2258" y="-15.4" font-family="sans-serif" font-size="14.00" fill="#000000"> &#160;Exports</text>
<g id="clust1" class="cluster">
<title>cluster_ListJobApplicationModule</title>
<polygon fill="none" stroke="#000000" stroke-dasharray="1,5" points="8,-70 8,-195 863,-195 863,-70 8,-70"/>
</g>
<g id="clust2" class="cluster">
<title>cluster_ListJobApplicationModule_declarations</title>
<polygon fill="none" stroke="#000000" points="651,-78 651,-130 855,-130 855,-78 651,-78"/>
</g>
<g id="clust4" class="cluster">
<title>cluster_ListJobApplicationModule_imports</title>
<polygon fill="none" stroke="#000000" points="16,-78 16,-130 643,-130 643,-78 16,-78"/>
</g>
<!-- ListJobApplicationComponent -->
<g id="node1" class="node">
<title>ListJobApplicationComponent</title>
<polygon fill="#ffffb3" stroke="#000000" points="847.1539,-122 658.8461,-122 658.8461,-86 847.1539,-86 847.1539,-122"/>
<text text-anchor="middle" x="753" y="-99.8" font-family="Times,serif" font-size="14.00" fill="#000000">ListJobApplicationComponent</text>
</g>
<!-- ListJobApplicationModule -->
<g id="node2" class="node">
<title>ListJobApplicationModule</title>
<polygon fill="#8dd3c7" stroke="#000000" points="545.371,-187 542.371,-191 521.371,-191 518.371,-187 378.629,-187 378.629,-151 545.371,-151 545.371,-187"/>
<text text-anchor="middle" x="462" y="-164.8" font-family="Times,serif" font-size="14.00" fill="#000000">ListJobApplicationModule</text>
</g>
<!-- ListJobApplicationComponent&#45;&gt;ListJobApplicationModule -->
<g id="edge1" class="edge">
<title>ListJobApplicationComponent&#45;&gt;ListJobApplicationModule</title>
<path fill="none" stroke="#000000" d="M753,-122.1061C753,-141.3391 753,-169 753,-169 753,-169 555.3889,-169 555.3889,-169"/>
<polygon fill="#000000" stroke="#000000" points="555.389,-165.5001 545.3889,-169 555.3889,-172.5001 555.389,-165.5001"/>
</g>
<!-- CommonModule -->
<g id="node3" class="node">
<title>CommonModule</title>
<polygon fill="#8dd3c7" stroke="#000000" points="634.6681,-122 631.6681,-126 610.6681,-126 607.6681,-122 523.3319,-122 523.3319,-86 634.6681,-86 634.6681,-122"/>
<text text-anchor="middle" x="579" y="-99.8" font-family="Times,serif" font-size="14.00" fill="#000000">CommonModule</text>
</g>
<!-- CommonModule&#45;&gt;ListJobApplicationModule -->
<g id="edge2" class="edge">
<title>CommonModule&#45;&gt;ListJobApplicationModule</title>
<path fill="none" stroke="#000000" d="M534.3009,-122.1061C534.3009,-122.1061 534.3009,-140.991 534.3009,-140.991"/>
<polygon fill="#000000" stroke="#000000" points="530.8009,-140.9909 534.3009,-150.991 537.8009,-140.991 530.8009,-140.9909"/>
</g>
<!-- CoreModule -->
<g id="node4" class="node">
<title>CoreModule</title>
<polygon fill="#8dd3c7" stroke="#000000" points="505.2619,-122 502.2619,-126 481.2619,-126 478.2619,-122 418.7381,-122 418.7381,-86 505.2619,-86 505.2619,-122"/>
<text text-anchor="middle" x="462" y="-99.8" font-family="Times,serif" font-size="14.00" fill="#000000">CoreModule</text>
</g>
<!-- CoreModule&#45;&gt;ListJobApplicationModule -->
<g id="edge3" class="edge">
<title>CoreModule&#45;&gt;ListJobApplicationModule</title>
<path fill="none" stroke="#000000" d="M462,-122.1061C462,-122.1061 462,-140.991 462,-140.991"/>
<polygon fill="#000000" stroke="#000000" points="458.5001,-140.9909 462,-150.991 465.5001,-140.991 458.5001,-140.9909"/>
</g>
<!-- MaterialDesignModule -->
<g id="node5" class="node">
<title>MaterialDesignModule</title>
<polygon fill="#8dd3c7" stroke="#000000" points="400.1275,-122 397.1275,-126 376.1275,-126 373.1275,-122 253.8725,-122 253.8725,-86 400.1275,-86 400.1275,-122"/>
<text text-anchor="middle" x="327" y="-99.8" font-family="Times,serif" font-size="14.00" fill="#000000">MaterialDesignModule</text>
</g>
<!-- MaterialDesignModule&#45;&gt;ListJobApplicationModule -->
<g id="edge4" class="edge">
<title>MaterialDesignModule&#45;&gt;ListJobApplicationModule</title>
<path fill="none" stroke="#000000" d="M389.439,-122.1061C389.439,-122.1061 389.439,-140.991 389.439,-140.991"/>
<polygon fill="#000000" stroke="#000000" points="385.9391,-140.9909 389.439,-150.991 392.9391,-140.991 385.9391,-140.9909"/>
</g>
<!-- ListJobApplicationRoutingModule -->
<g id="node6" class="node">
<title>ListJobApplicationRoutingModule</title>
<polygon fill="#8dd3c7" stroke="#000000" points="235.9888,-122 232.9888,-126 211.9888,-126 208.9888,-122 24.0112,-122 24.0112,-86 235.9888,-86 235.9888,-122"/>
<text text-anchor="middle" x="130" y="-99.8" font-family="Times,serif" font-size="14.00" fill="#000000">ListJobApplicationRoutingModule</text>
</g>
<!-- ListJobApplicationRoutingModule&#45;&gt;ListJobApplicationModule -->
<g id="edge5" class="edge">
<title>ListJobApplicationRoutingModule&#45;&gt;ListJobApplicationModule</title>
<path fill="none" stroke="#000000" d="M130,-122.1061C130,-141.3391 130,-169 130,-169 130,-169 368.2224,-169 368.2224,-169"/>
<polygon fill="#000000" stroke="#000000" points="368.2224,-172.5001 378.2224,-169 368.2223,-165.5001 368.2224,-172.5001"/>
</g>
</g>
</svg>
